<?xml version="1.0" encoding="UTF-8" standalone="no"?>
<svg
   xmlns:dc="http://purl.org/dc/elements/1.1/"
   xmlns:cc="http://creativecommons.org/ns#"
   xmlns:rdf="http://www.w3.org/1999/02/22-rdf-syntax-ns#"
   xmlns:svg="http://www.w3.org/2000/svg"
   xmlns="http://www.w3.org/2000/svg"
   width="500"
   height="228.29739"
   viewBox="0 0 499.99999 228.29739"
   version="1.1"
   id="svg8">
  <defs
     id="defs2" />
  <metadata
     id="metadata5">
    <rdf:RDF>
      <cc:Work
         rdf:about="">
        <dc:format>image/svg+xml</dc:format>
        <dc:type
           rdf:resource="http://purl.org/dc/dcmitype/StillImage" />
        <dc:title></dc:title>
      </cc:Work>
    </rdf:RDF>
  </metadata>
  <g
     transform="translate(63.877828,-18.053678)"
     id="layer1">
    <path
       style="fill:#cccccc;stroke-width:0.26458332"
       d="m 19.186793,18.053678 c -0.9972,0 -1.79989,0.80269 -1.79989,1.79989 v 65.191886 c 0,0.997201 0.80269,1.799891 1.79989,1.799891 H 40.449579 A 38.931545,40.065475 0 0 0 40.065621,92.137012 38.931545,40.065475 0 0 0 78.997095,132.20226 38.931545,40.065475 0 0 0 117.92857,92.137012 38.931545,40.065475 0 0 0 117.541,86.845345 h 20.51037 c 0.9972,0 1.79989,-0.80269 1.79989,-1.799891 V 19.853568 c 0,-0.9972 -0.80269,-1.79989 -1.79989,-1.79989 z"
       id="path10" />
    <path
       id="path15"
       d="m 138.05137,246.35107 c 0.9972,0 1.79989,-0.80269 1.79989,-1.79989 V 179.3593 c 0,-0.9972 -0.80269,-1.79989 -1.79989,-1.79989 h -21.26279 a 38.931545,40.065475 0 0 0 0.38396,-5.29167 38.931545,40.065475 0 0 0 -38.93147,-40.06525 38.931545,40.065475 0 0 0 -38.931476,40.06525 38.931545,40.065475 0 0 0 0.38757,5.29167 h -20.51037 c -0.9972,0 -1.79989,0.80269 -1.79989,1.79989 v 65.19188 c 0,0.9972 0.80269,1.79989 1.79989,1.79989 z"
       style="fill:#cccccc;stroke-width:0.26458332" />
    <path
       style="fill:#cccccc;stroke-width:0.26458332"
       d="m 221.11599,71.636159 c 0,-0.9972 -0.80269,-1.79989 -1.79989,-1.79989 h -65.19188 c -0.9972,0 -1.79989,0.80269 -1.79989,1.79989 v 21.26279 a 40.065475,38.931545 0 0 0 -5.29167,-0.38396 40.065475,38.931545 0 0 0 -40.06525,38.931471 40.065475,38.931545 0 0 0 40.06525,38.93148 40.065475,38.931545 0 0 0 5.29167,-0.38757 v 20.51037 c 0,0.9972 0.80269,1.79989 1.79989,1.79989 h 65.19188 c 0.9972,0 1.79989,-0.80269 1.79989,-1.79989 z"
       id="path17" />
    <path
       id="path19"
       d="m -63.877828,71.636157 c 0,-0.9972 0.80269,-1.79989 1.79989,-1.79989 H 3.1139419 c 0.9972,0 1.79989,0.80269 1.79989,1.79989 v 21.26279 a 40.065475,38.931545 0 0 1 5.2916701,-0.38396 40.065475,38.931545 0 0 1 40.06525,38.931473 40.065475,38.931545 0 0 1 -40.06525,38.93148 40.065475,38.931545 0 0 1 -5.2916701,-0.38757 v 20.51037 c 0,0.9972 -0.80269,1.79989 -1.79989,1.79989 H -62.077938 c -0.9972,0 -1.79989,-0.80269 -1.79989,-1.79989 z"
       style="fill:#cccccc;stroke-width:0.26458332" />
    <ellipse
       style="fill:#808080;stroke-width:0.26458332"
       id="path21"
       cx="21.922621"
       cy="131.8244"
       rx="11.339286"
       ry="11.717261" />
    <ellipse
       ry="11.717261"
       rx="11.339286"
       cy="131.8244"
       cx="139.8512"
       id="ellipse23"
       style="fill:#808080;stroke-width:0.26458332" />
    <ellipse
       ry="11.717261"
       rx="11.339286"
       cy="-165.22783"
       cx="-77.401711"
       id="ellipse25"
       style="fill:#808080;stroke-width:0.26458332"
       transform="rotate(179.34085)" />
    <ellipse
       style="fill:#808080;stroke-width:0.26458332"
       id="ellipse27"
       cx="-78.296059"
       cy="-100.98571"
       rx="11.339286"
       ry="11.717261"
       transform="rotate(179.34085)" />
    <rect
       style="fill:#f9f9f9;stroke-width:0.26458332"
       id="rect29"
       width="82.398804"
       height="41.577381"
       x="38.55357"
       y="30.148809"
       rx="1.8000001" />
    <rect
       rx="1.8000001"
       y="194.94643"
       x="38.55357"
       height="41.577381"
       width="82.398804"
       id="rect31"
       style="fill:#f9f9f9;stroke-width:0.26458332" />
    <rect
       rx="1.8000001"
       y="-52.160721"
       x="-170"
       height="41.577381"
       width="82.398804"
       id="rect33"
       style="fill:#f9f9f9;stroke-width:0.26458332"
       transform="rotate(-90)" />
    <rect
       transform="rotate(-90)"
       style="fill:#f9f9f9;stroke-width:0.26458332"
       id="rect35"
       width="82.398804"
       height="41.577381"
       x="-171.5119"
       y="167.82143"
       rx="1.8000001" />
    <path
       style="fill:#1a1a1a;stroke-width:0.12680118"
       d="m 48.681538,36.196314 c -0.58532,0 -1.05647,0.314097 -1.05647,0.704306 v 25.805747 c 0,0.390209 0.47115,0.704305 1.05647,0.704305 h 15.36095 V 42.521115 c 0,-0.390209 0.47114,-0.704306 1.05646,-0.704306 h 28.94658 c 0.58532,0 1.05677,0.314097 1.05677,0.704306 v 20.889557 h 16.691912 c 0.58531,0 1.05646,-0.314096 1.05646,-0.704305 V 36.90062 c 0,-0.390209 -0.47115,-0.704306 -1.05646,-0.704306 z"
       id="rect37" />
    <path
       id="path42"
       d="m 48.681537,229.7202 c -0.58532,0 -1.05647,-0.3141 -1.05647,-0.70431 v -25.80575 c 0,-0.39021 0.47115,-0.7043 1.05647,-0.7043 h 15.36095 v 20.88955 c 0,0.39021 0.47114,0.70431 1.05646,0.70431 h 28.94658 c 0.58532,0 1.05677,-0.3141 1.05677,-0.70431 v -20.88955 h 16.691913 c 0.58531,0 1.05646,0.31409 1.05646,0.7043 v 25.80575 c 0,0.39021 -0.47115,0.70431 -1.05646,0.70431 z"
       style="fill:#1a1a1a;stroke-width:0.12680118" />
    <path
       id="path44"
       d="m -44.5215,161.40729 c -5.04e-4,0.58532 0.313186,1.05674 0.703395,1.05708 l 25.805737,0.0223 c 0.390209,3.4e-4 0.704711,-0.47054 0.705216,-1.05586 l 0.01325,-15.36095 -20.889549,-0.018 c -0.390209,-3.3e-4 -0.7039,-0.47174 -0.703395,-1.05706 l 0.02497,-28.94657 c 5.05e-4,-0.58532 0.315009,-1.0565 0.705217,-1.05617 l 20.88955,0.018 0.0144,-16.69191 c 5.05e-4,-0.58531 -0.313184,-1.05673 -0.703393,-1.05707 l -25.805737,-0.0223 c -0.390209,-3.4e-4 -0.704713,0.47054 -0.705217,1.05585 z"
       style="fill:#1a1a1a;stroke-width:0.12680118" />
    <path
       style="fill:#1a1a1a;stroke-width:0.12680118"
       d="m 202.67493,161.4308 c -5e-4,0.58532 -0.31501,1.0562 -0.70522,1.05586 l -25.80574,-0.0223 c -0.39021,-3.4e-4 -0.70389,-0.47176 -0.70339,-1.05708 l 0.0132,-15.36094 20.88955,0.018 c 0.39021,3.4e-4 0.70471,-0.47053 0.70522,-1.05585 l 0.025,-28.94657 c 5e-4,-0.58532 -0.31319,-1.05704 -0.7034,-1.05738 l -20.88954,-0.018 0.0144,-16.691904 c 5e-4,-0.58531 0.315,-1.05618 0.70521,-1.05585 l 25.80574,0.0223 c 0.39021,3.4e-4 0.7039,0.47176 0.7034,1.05707 z"
       id="path46" />
  </g>
</svg>
