<?xml version="1.0" encoding="utf-8"?>
<!-- Generator: Adobe Illustrator 18.1.0, SVG Export Plug-In . SVG Version: 6.00 Build 0)  -->
<!DOCTYPE svg PUBLIC "-//W3C//DTD SVG 1.1//EN" "http://www.w3.org/Graphics/SVG/1.1/DTD/svg11.dtd">
<svg version="1.1" id="Layer_1" xmlns="http://www.w3.org/2000/svg" xmlns:xlink="http://www.w3.org/1999/xlink" x="0px" y="0px"
	 viewBox="0 0 36 36" enable-background="new 0 0 36 36" xml:space="preserve">
<circle cx="18" cy="19" r="2"/>
<path fill="none" stroke="#000000" stroke-width="2" stroke-miterlimit="10" d="M15.5,24.5c-2.1-0.9-3.5-3-3.5-5.5c0-3.3,2.7-6,6-6
	s6,2.7,6,6c0,2.4-1.4,4.4-3.4,5.4"/>
<path fill="none" stroke="#000000" stroke-width="2" stroke-miterlimit="10" d="M13.5,29C9.7,27.3,7,23.5,7,19c0-6.1,4.9-11,11-11
	s11,4.9,11,11c0,4.3-2.5,8.1-6.2,9.9"/>
<path fill="none" stroke="#000000" stroke-width="2" stroke-miterlimit="10" d="M11.4,33.6C5.9,31.1,2,25.5,2,19C2,10.2,9.2,3,18,3
	s16,7.2,16,16c0,6.3-3.7,11.8-9,14.4"/>
</svg>
