<?xml version="1.0" encoding="utf-8"?>
<!-- Generator: Adobe Illustrator 18.1.0, SVG Export Plug-In . SVG Version: 6.00 Build 0)  -->
<!DOCTYPE svg PUBLIC "-//W3C//DTD SVG 1.1//EN" "http://www.w3.org/Graphics/SVG/1.1/DTD/svg11.dtd">
<svg version="1.1" id="Layer_1" xmlns="http://www.w3.org/2000/svg" xmlns:xlink="http://www.w3.org/1999/xlink" x="0px" y="0px"
	 viewBox="0 0 36 36" enable-background="new 0 0 36 36" xml:space="preserve">
<g>
	<path d="M31.2,19.1c0.2,0.3,0.2,0.6,0.2,0.9c0.3,0.1,0.5,0.3,0.7,0.7l0.1,0.3H36v-6h-7L31.2,19.1z"/>
	<polygon points="7.9,15 0,15 0,21 4.4,21 	"/>
	<polygon points="23.7,21 20.5,15 16.6,15 13.1,21 	"/>
</g>
<g>
	<rect x="7.2" y="11.3" transform="matrix(-0.8631 -0.505 0.505 -0.8631 7.5968 41.6908)" width="4.5" height="17"/>
	<polygon points="0.6,35 0.6,35 6,30.3 2.1,28 	"/>
	<path d="M17.3,8L16,7.2c-0.7-0.4-1.7-0.2-2.1,0.5l-0.9,1.6l3.9,2.3l0.9-1.6C18.2,9.3,18,8.4,17.3,8z"/>
	<path d="M20.1,1.6c-0.3-0.5-0.9-0.7-1.5-0.4l-2.1,1.1c-0.5,0.3-0.7,0.9-0.4,1.5L25.9,22l4-2.1L20.1,1.6z"/>
	<rect x="27.4" y="22.3" transform="matrix(0.8817 -0.4719 0.4719 0.8817 -7.9076 16.8578)" width="4.5" height="3.8"/>
	<path d="M33.4,26.4l-4,2.1c1.4,5.9,4.2,3.4,5.7,6.4C36,32.6,36.8,29.3,33.4,26.4z"/>
</g>
</svg>
