<?xml version="1.0" encoding="utf-8"?>
<!-- Generator: Adobe Illustrator 18.1.0, SVG Export Plug-In . SVG Version: 6.00 Build 0)  -->
<!DOCTYPE svg PUBLIC "-//W3C//DTD SVG 1.1//EN" "http://www.w3.org/Graphics/SVG/1.1/DTD/svg11.dtd">
<svg version="1.1" id="Layer_1" xmlns="http://www.w3.org/2000/svg" xmlns:xlink="http://www.w3.org/1999/xlink" x="0px" y="0px"
	 viewBox="0 0 36 36" enable-background="new 0 0 36 36" xml:space="preserve">
<path fill-opacity="0.4" d="M1,9v24h34V9H1z M11,17H7v-4h4V17z M17,17h-4v-4h4V17z M23,17h-4v-4h4V17z M29,17h-4v-4h4V17z M11,23H7
	v-4h4V23z M17,23h-4v-4h4V23z M23,23h-4v-4h4V23z M29,23h-4v-4h4V23z M11,29H7v-4h4V29z M17,29h-4v-4h4V29z M23,29h-4v-4h4V29z
	 M29,29h-4v-4h4V29z"/>
<polygon fill-opacity="0.12" stroke="#000000" stroke-width="2" stroke-linejoin="round" stroke-miterlimit="10" points="1,3 1,9 
	35,9 35,3 "/>
<path fill="none" stroke="#000000" stroke-width="2" stroke-linejoin="round" stroke-miterlimit="10" d="M1,9v24h34V9H1z"/>
<g>
	<path d="M17,19v4h-4v-4H17 M17,17h-4c-1.1,0-2,0.9-2,2v4c0,1.1,0.9,2,2,2h4c1.1,0,2-0.9,2-2v-4C19,17.9,18.1,17,17,17L17,17z"/>
</g>
</svg>
