<?xml version="1.0" encoding="utf-8"?>
<!-- Generator: Adobe Illustrator 18.1.0, SVG Export Plug-In . SVG Version: 6.00 Build 0)  -->
<!DOCTYPE svg PUBLIC "-//W3C//DTD SVG 1.1//EN" "http://www.w3.org/Graphics/SVG/1.1/DTD/svg11.dtd">
<svg version="1.1" id="Layer_1" xmlns="http://www.w3.org/2000/svg" xmlns:xlink="http://www.w3.org/1999/xlink" x="0px" y="0px"
	 viewBox="0 0 36 36" enable-background="new 0 0 36 36" xml:space="preserve">
<circle fill-opacity="0.12" stroke="#000000" stroke-width="2" stroke-linejoin="round" stroke-miterlimit="10" cx="18" cy="18" r="8"/>
<path fill-opacity="0.4" d="M31,6h-5l-1.4-2.1c-0.4-0.6-1-0.9-1.7-0.9h-9.9c-0.7,0-1.3,0.3-1.7,0.9L10,6H5c-2.2,0-4,1.8-4,4v17
	c0,2.2,1.8,4,4,4h26c2.2,0,4-1.8,4-4V10C35,7.8,33.2,6,31,6z M6,13c-1.1,0-2-0.9-2-2c0-1.1,0.9-2,2-2s2,0.9,2,2C8,12.1,7.1,13,6,13z
	 M18,26c-4.4,0-8-3.6-8-8c0-4.4,3.6-8,8-8s8,3.6,8,8C26,22.4,22.4,26,18,26z"/>
<path fill="none" stroke="#000000" stroke-width="2" stroke-linejoin="round" stroke-miterlimit="10" d="M31,6h-5l-1.4-2.1
	c-0.4-0.6-1-0.9-1.7-0.9h-9.9c-0.7,0-1.3,0.3-1.7,0.9L10,6H5c-2.2,0-4,1.8-4,4v17c0,2.2,1.8,4,4,4h26c2.2,0,4-1.8,4-4V10
	C35,7.8,33.2,6,31,6z"/>
</svg>
