<?xml version="1.0" encoding="utf-8"?>
<!-- Generator: Adobe Illustrator 18.1.0, SVG Export Plug-In . SVG Version: 6.00 Build 0)  -->
<!DOCTYPE svg PUBLIC "-//W3C//DTD SVG 1.1//EN" "http://www.w3.org/Graphics/SVG/1.1/DTD/svg11.dtd">
<svg version="1.1" id="Layer_1" xmlns="http://www.w3.org/2000/svg" xmlns:xlink="http://www.w3.org/1999/xlink" x="0px" y="0px"
	 viewBox="0 0 36 36" enable-background="new 0 0 36 36" xml:space="preserve">
<rect x="9" y="26" fill="none" stroke="#000000" stroke-width="2" stroke-linejoin="round" stroke-miterlimit="10" width="6" height="5"/>
<rect x="15" y="26" fill="none" stroke="#000000" stroke-width="2" stroke-linejoin="round" stroke-miterlimit="10" width="6" height="5"/>
<rect x="21" y="26" fill="none" stroke="#000000" stroke-width="2" stroke-linejoin="round" stroke-miterlimit="10" width="6" height="5"/>
<path fill-opacity="0.12" stroke="#000000" stroke-width="2" stroke-linejoin="round" stroke-miterlimit="10" d="M33.2,5H2.8
	C1.8,5,1,5.8,1,6.8v22.5c0,1,0.8,1.8,1.8,1.8H9v-5h18v5h6.2c1,0,1.8-0.8,1.8-1.8V6.8C35,5.8,34.2,5,33.2,5z"/>
<path fill-opacity="0.3" stroke="#000000" stroke-width="2" stroke-linejoin="round" stroke-miterlimit="10" d="M1,9v20.2
	c0,1,0.8,1.8,1.8,1.8H9v-5h18v5h6.2c1,0,1.8-0.8,1.8-1.8V9H1z"/>
</svg>
