<?xml version="1.0" encoding="utf-8"?>
<!-- Generator: Adobe Illustrator 18.1.0, SVG Export Plug-In . SVG Version: 6.00 Build 0)  -->
<!DOCTYPE svg PUBLIC "-//W3C//DTD SVG 1.1//EN" "http://www.w3.org/Graphics/SVG/1.1/DTD/svg11.dtd">
<svg version="1.1" id="Layer_1" xmlns="http://www.w3.org/2000/svg" xmlns:xlink="http://www.w3.org/1999/xlink" x="0px" y="0px"
	 viewBox="0 0 36 36" enable-background="new 0 0 36 36" xml:space="preserve">
<path fill-opacity="0.4" d="M18,1C8.6,1,1,8.6,1,18s7.6,17,17,17c9.4,0,17-7.6,17-17S27.4,1,18,1z M18,30L8,18h6V8h8v10h6L18,30z"/>
<g>
	<path d="M22,8v10h6L18,30L8,18h6V8H22 M22,6h-8c-1.1,0-2,0.9-2,2v8H8c-0.8,0-1.5,0.4-1.8,1.2c-0.3,0.7-0.2,1.5,0.3,2.1l10,12
		c0.4,0.5,0.9,0.7,1.5,0.7s1.2-0.3,1.5-0.7l10-12c0.5-0.6,0.6-1.4,0.3-2.1S28.8,16,28,16h-4V8C24,6.9,23.1,6,22,6L22,6z"/>
</g>
<path fill="none" stroke="#000000" stroke-width="2" stroke-linejoin="round" stroke-miterlimit="10" d="M18,1C8.6,1,1,8.6,1,18
	s7.6,17,17,17c9.4,0,17-7.6,17-17S27.4,1,18,1z"/>
</svg>
