<?xml version="1.0" encoding="utf-8"?>
<!-- Generator: Adobe Illustrator 18.1.0, SVG Export Plug-In . SVG Version: 6.00 Build 0)  -->
<!DOCTYPE svg PUBLIC "-//W3C//DTD SVG 1.1//EN" "http://www.w3.org/Graphics/SVG/1.1/DTD/svg11.dtd">
<svg version="1.1" id="Layer_1" xmlns="http://www.w3.org/2000/svg" xmlns:xlink="http://www.w3.org/1999/xlink" x="0px" y="0px"
	 viewBox="0 0 36 36" enable-background="new 0 0 36 36" xml:space="preserve">
<path fill-opacity="0.4" d="M32,1H4C2.3,1,1,2.3,1,4v28c0,1.7,1.3,3,3,3h28c1.7,0,3-1.3,3-3V4C35,2.3,33.7,1,32,1z M28.9,11.1h-2.3
	c-1.5,0-1.6,0.6-1.6,1.6l0,2.3h3.7l-0.4,4h-3.2v11.9h-5.4V19h-2.1v-4h2.1v-2.6c0-3.3,1.4-5.3,5.3-5.3h4V11.1z"/>
<path fill="none" stroke="#000000" stroke-width="2" stroke-linejoin="round" stroke-miterlimit="10" d="M32,1H4C2.3,1,1,2.3,1,4v28
	c0,1.7,1.3,3,3,3h28c1.7,0,3-1.3,3-3V4C35,2.3,33.7,1,32,1z"/>
</svg>
