<?xml version="1.0" encoding="utf-8"?>
<!-- Generator: Adobe Illustrator 18.1.0, SVG Export Plug-In . SVG Version: 6.00 Build 0)  -->
<!DOCTYPE svg PUBLIC "-//W3C//DTD SVG 1.1//EN" "http://www.w3.org/Graphics/SVG/1.1/DTD/svg11.dtd">
<svg version="1.1" id="Layer_1" xmlns="http://www.w3.org/2000/svg" xmlns:xlink="http://www.w3.org/1999/xlink" x="0px" y="0px"
	 viewBox="0 0 36 36" enable-background="new 0 0 36 36" xml:space="preserve">
<path fill-opacity="0.12" stroke="#000000" stroke-width="2" stroke-linejoin="round" stroke-miterlimit="10" d="M33.2,7H12
	l-1.4-2.1C10.2,4.3,9.6,4,8.9,4H2.8C1.8,4,1,4.8,1,5.8v23.5c0,1,0.8,1.8,1.8,1.8h30.5c1,0,1.8-0.8,1.8-1.8V8.8C35,7.8,34.2,7,33.2,7
	z"/>
<path fill-opacity="0.3" stroke="#000000" stroke-width="2" stroke-linejoin="round" stroke-miterlimit="10" d="M33.2,11H2.8
	c-1,0-1.8,0.8-1.8,1.8v16.5c0,1,0.8,1.8,1.8,1.8h30.5c1,0,1.8-0.8,1.8-1.8V12.8C35,11.8,34.2,11,33.2,11z"/>
</svg>
