<?xml version="1.0" encoding="utf-8"?>
<!-- Generator: Adobe Illustrator 18.1.0, SVG Export Plug-In . SVG Version: 6.00 Build 0)  -->
<!DOCTYPE svg PUBLIC "-//W3C//DTD SVG 1.1//EN" "http://www.w3.org/Graphics/SVG/1.1/DTD/svg11.dtd">
<svg version="1.1" id="Layer_1" xmlns="http://www.w3.org/2000/svg" xmlns:xlink="http://www.w3.org/1999/xlink" x="0px" y="0px"
	 viewBox="0 0 36 36" enable-background="new 0 0 36 36" xml:space="preserve">
<path fill-opacity="0.4" stroke="#000000" stroke-width="2" stroke-linejoin="round" stroke-miterlimit="10" d="M20.9,13.5
	c0.3,0.2,0.7,0.6,0.6,1.5c-0.2,1.6-0.9,2-1.3,2.1c0,0.2-0.1,0.5-0.1,0.8c0.3,0.7,0.7,1.2,0.9,1.3c0,0.9,0,1.5-0.1,2.5
	c-0.3,0.9-1.2,1.4-2.3,1.9c0,0.1,0,0.2,0,0.3c0.9,2.5,5.8,2.7,8.5,5.2h7.9c-0.3-5.4-7.2-4.6-8.3-7.4c-0.1-1-0.1-1.6-0.1-2.5
	c0.4-0.2,1.2-1.7,1.3-2.9c0.3,0,0.9-0.4,1-1.7c0.1-0.7-0.2-1.1-0.5-1.2c0.5-1.7,1.7-6.8-2.1-7.3C26,5.3,25,5,23.7,5
	c-1.2,0-2.2,0.3-3,0.7C22.4,7.8,21.4,11.9,20.9,13.5z"/>
<path fill-opacity="0.12" stroke="#000000" stroke-width="2" stroke-linejoin="round" stroke-miterlimit="10" d="M18.6,23.8
	c-0.1-1.2-0.1-2-0.1-3.1c0.5-0.3,1.5-2.1,1.7-3.6c0.4,0,1.1-0.4,1.3-2.1c0.1-0.9-0.3-1.4-0.6-1.5c0.7-2.1,2.1-8.5-2.6-9.2
	C17.8,3.4,16.5,3,14.9,3C8.4,3.1,7.6,7.9,9,13.5c-0.3,0.2-0.7,0.6-0.6,1.5c0.2,1.6,0.9,2,1.3,2.1c0.2,1.5,1.2,3.3,1.7,3.6
	c0,1.1,0,1.9-0.1,3.1C10.1,27.3,1.4,26.3,1,33h27.9C28.5,26.3,19.9,27.3,18.6,23.8z"/>
</svg>
