<?xml version="1.0" encoding="utf-8"?>
<!-- Generator: Adobe Illustrator 18.1.0, SVG Export Plug-In . SVG Version: 6.00 Build 0)  -->
<!DOCTYPE svg PUBLIC "-//W3C//DTD SVG 1.1//EN" "http://www.w3.org/Graphics/SVG/1.1/DTD/svg11.dtd">
<svg version="1.1" id="Layer_1" xmlns="http://www.w3.org/2000/svg" xmlns:xlink="http://www.w3.org/1999/xlink" x="0px" y="0px"
	 viewBox="0 0 36 36" enable-background="new 0 0 36 36" xml:space="preserve">
<path fill-opacity="0.12" stroke="#000000" stroke-width="2" stroke-linejoin="round" stroke-miterlimit="10" d="M28.6,15
	c0.3-0.8,0.4-1.6,0.4-2.5C29,8.4,25.6,5,21.5,5c-3.5,0-6.4,2.4-7.3,5.7C13.5,9.7,12.3,9,11,9c-2.2,0-4,1.8-4,4c0,0.7,0.2,1.4,0.6,2
	c0,0,0,0-0.1,0C3.9,15,1,17.9,1,21.5S3.9,28,7.5,28s17.4,0,21,0s6.5-2.9,6.5-6.5C35,17.9,32.1,15,28.6,15z"/>
</svg>
