<?xml version="1.0" encoding="utf-8"?>
<!-- Generator: Adobe Illustrator 18.1.0, SVG Export Plug-In . SVG Version: 6.00 Build 0)  -->
<!DOCTYPE svg PUBLIC "-//W3C//DTD SVG 1.1//EN" "http://www.w3.org/Graphics/SVG/1.1/DTD/svg11.dtd">
<svg version="1.1" id="Layer_1" xmlns="http://www.w3.org/2000/svg" xmlns:xlink="http://www.w3.org/1999/xlink" x="0px" y="0px"
	 viewBox="0 0 36 36" enable-background="new 0 0 36 36" xml:space="preserve">
<path fill-opacity="0.4" d="M5,16v17c0,1.1,0.9,2,2,2h22c1.1,0,2-0.9,2-2V16c0-1.1-0.9-2-2-2H7C5.9,14,5,14.9,5,16z M20,26.4V29
	c0,1.1-0.9,2-2,2s-2-0.9-2-2v-2.6c-1.2-0.7-2-2-2-3.4c0-2.2,1.8-4,4-4s4,1.8,4,4C22,24.5,21.2,25.8,20,26.4z"/>
<path fill="none" stroke="#000000" stroke-width="2" stroke-linejoin="round" stroke-miterlimit="10" d="M5,16v17c0,1.1,0.9,2,2,2
	h22c1.1,0,2-0.9,2-2V16c0-1.1-0.9-2-2-2H7C5.9,14,5,14.9,5,16z"/>
<path fill="none" stroke="#000000" stroke-width="2" stroke-linejoin="round" stroke-miterlimit="10" d="M27,14c0-0.5,0-3.5,0-4
	c0-5-4-9-9-9s-9,4-9,9c0,0.5,0,3.5,0,4"/>
</svg>
