<?xml version="1.0" encoding="utf-8"?>
<!-- Generator: Adobe Illustrator 18.1.0, SVG Export Plug-In . SVG Version: 6.00 Build 0)  -->
<!DOCTYPE svg PUBLIC "-//W3C//DTD SVG 1.1//EN" "http://www.w3.org/Graphics/SVG/1.1/DTD/svg11.dtd">
<svg version="1.1" id="Layer_1" xmlns="http://www.w3.org/2000/svg" xmlns:xlink="http://www.w3.org/1999/xlink" x="0px" y="0px"
	 viewBox="0 0 36 36" enable-background="new 0 0 36 36" xml:space="preserve">
<path fill-opacity="0.4" d="M7,22.5c-0.1,0.1-0.3,0.2-0.4,0.4c-1.6-1.2-3-2.5-4.1-4.1c-0.6-0.8-1-1.6-1.4-2.4
	C1.2,15,1.5,13.7,2,12.4c1.2,0.3,2.6,0.5,4.1,0.5c0.1,0.7,0.6,1.4,1.2,1.8c-0.2,0.7-0.3,1.4-0.4,2C6.6,18.7,6.7,20.7,7,22.5z
	 M22,9.7c-0.1,1-0.7,1.8-1.6,2.1c0.1,1.1,0.2,2.2,0.5,3.3c0.2-0.1,0.4-0.1,0.6-0.1c0.4,0,0.7,0.1,1.1,0.2c2.9-3.3,6.3-5.6,9.5-6.8
	c-0.9-1.3-2-2.5-3.3-3.6C27.3,6.7,24.9,8.3,22,9.7z M25.1,27c0-0.2-0.1-0.3-0.1-0.5c0-0.4,0.1-0.7,0.2-1.1c-1.6-1.5-2.9-3.3-4-5.5
	c-0.2,0-0.4-0.1-0.6-0.1c-1.2,1.9-2.1,3.7-2.8,5.6c0.7,0.4,1.1,1.2,1.1,2.1C21.1,27.6,23.2,27.5,25.1,27z M19,17.5
	c0-0.7,0.3-1.3,0.7-1.7c-0.3-1.3-0.5-2.5-0.6-3.8c-0.5-0.1-1-0.3-1.3-0.7c-1,0.3-1.9,0.6-3,0.8c-1.3,0.3-2.5,0.5-3.8,0.6
	C10.9,14,9.8,15,8.5,15c0,0,0,0,0,0c-0.1,0.6-0.3,1.2-0.3,1.9c-0.2,1.8-0.2,3.5,0,5.2c0.1,0,0.2,0,0.3,0c1.4,0,2.5,1.1,2.5,2.5
	c0,0.3-0.1,0.7-0.2,0.9c1,0.5,2.1,0.9,3.2,1.2c0.1,0,0.1,0,0.2,0c0.3-1,1.3-1.7,2.3-1.7c0.1,0,0.1,0,0.2,0c0.7-1.9,1.7-3.9,2.9-5.9
	C19.2,18.7,19,18.1,19,17.5z M21.1,2.1c-2.6,0.3-5.2,1.5-7.3,3.6c-1.5,1.4-2.7,3.1-3.7,5c0.3,0.2,0.5,0.5,0.7,0.8
	c1.2-0.1,2.5-0.3,3.8-0.6c0.9-0.2,1.8-0.4,2.6-0.7C17,9.9,17,9.7,17,9.5c0-1.3,1.1-2.4,2.4-2.5c0.3-1.4,0.7-2.8,1.3-4.1
	C20.8,2.6,20.9,2.4,21.1,2.1z M15.6,33.8c-0.2-1.2-0.3-2.6-0.1-4c-0.8-0.3-1.3-1-1.5-1.8c-0.1,0-0.3-0.1-0.4-0.1
	c-1.3-0.4-2.4-0.8-3.6-1.4c-0.2,0.1-0.3,0.2-0.5,0.3C10.8,29.8,13,32.3,15.6,33.8z M27.8,4.1c-1.2-0.8-2.5-1.5-3.9-2
	C23.4,2,23,2,22.6,2c-0.3,0.5-0.5,1-0.8,1.5c-0.5,1.2-0.9,2.5-1.2,3.8c0.5,0.2,0.8,0.6,1.1,1.1C24.3,7.1,26.4,5.6,27.8,4.1z
	 M29.2,28.3c-0.4,0.4-1.1,0.7-1.7,0.7c-0.7,0-1.4-0.3-1.8-0.8c-1.7,0.4-3.4,0.7-5.3,0.7c-0.6,0-1.2,0-1.8-0.1
	c-0.4,0.6-1.1,1.1-1.8,1.2c-0.2,1.7-0.1,3.2,0.3,4.5c0.5,0.2,1,0.3,1.6,0.5c4.9-0.2,9.2-2.4,12.2-5.9C30.3,28.8,29.8,28.6,29.2,28.3
	z M8.2,27C7,26.8,6,25.8,6,24.5c0-0.1,0-0.2,0-0.4c-1.8-1.3-3.3-2.8-4.6-4.5c-0.1-0.2-0.3-0.4-0.4-0.6c0.5,7.8,6.1,14.1,13.5,15.7
	C11.8,33,9.5,30.3,8.2,27z M34.1,23.5c-1.1,1.2-2.5,2.3-4.1,3.1c0,0.2,0,0.4-0.1,0.6c0.6,0.3,1.2,0.6,1.8,0.8
	C32.7,26.6,33.5,25.1,34.1,23.5z M34.8,20.2c0.1-0.7,0.2-1.5,0.2-2.2c0-3.1-0.8-6-2.3-8.5c-3,1.1-6.3,3.4-9.2,6.6
	c0.3,0.4,0.4,0.9,0.4,1.4c0,1-0.6,1.8-1.4,2.2c0.9,1.8,2.1,3.4,3.5,4.7c0.4-0.3,0.9-0.4,1.4-0.4c0.9,0,1.7,0.5,2.2,1.3
	C31.9,24,33.7,22.3,34.8,20.2z M19.4,1.1C19,1,18.5,1,18,1C11,1,5.1,5.2,2.4,11.2c1.1,0.2,2.4,0.4,3.7,0.5C6.5,10.7,7.4,10,8.5,10
	c0.1,0,0.3,0,0.4,0c1-2,2.3-3.9,4-5.4C14.8,2.9,17.1,1.6,19.4,1.1z"/>
<path fill="none" stroke="#000000" stroke-width="2" stroke-linejoin="round" stroke-miterlimit="10" d="M18,1C8.6,1,1,8.6,1,18
	s7.6,17,17,17c9.4,0,17-7.6,17-17S27.4,1,18,1z"/>
</svg>
