<?xml version="1.0" encoding="utf-8"?>
<!-- Generator: Adobe Illustrator 18.1.0, SVG Export Plug-In . SVG Version: 6.00 Build 0)  -->
<!DOCTYPE svg PUBLIC "-//W3C//DTD SVG 1.1//EN" "http://www.w3.org/Graphics/SVG/1.1/DTD/svg11.dtd">
<svg version="1.1" id="Layer_1" xmlns="http://www.w3.org/2000/svg" xmlns:xlink="http://www.w3.org/1999/xlink" x="0px" y="0px"
	 viewBox="0 0 36 36" enable-background="new 0 0 36 36" xml:space="preserve">
<path fill-opacity="0.12" stroke="#000000" stroke-width="2" stroke-linejoin="round" stroke-miterlimit="10" d="M21.1,26
	c0,0,3.4-2.1,4.1-2.5c0.8-0.4,1.5-0.5,2-0.2c0.7,0.4,6.8,4.5,7.3,4.8c0.5,0.4,0.8,1.4,0.1,2.4c-0.7,1-3.4,4.1-4.8,4.4
	c-1.3,0.3-7.6,0.4-18.4-10.4C0.7,13.8,0.9,7.6,1,6.2c0.2-1.4,3.4-4.1,4.4-4.8c1-0.7,2-0.4,2.4,0.1c0.4,0.6,4.4,6.6,4.8,7.3
	c0.3,0.5,0.2,1.3-0.2,2c-0.4,0.8-2.5,4.1-2.5,4.1s1.2,2,5.1,6C19.1,24.9,21.1,26,21.1,26z"/>
</svg>
