<?xml version="1.0" encoding="utf-8"?>
<!-- Generator: Adobe Illustrator 18.1.0, SVG Export Plug-In . SVG Version: 6.00 Build 0)  -->
<!DOCTYPE svg PUBLIC "-//W3C//DTD SVG 1.1//EN" "http://www.w3.org/Graphics/SVG/1.1/DTD/svg11.dtd">
<svg version="1.1" id="Layer_1" xmlns="http://www.w3.org/2000/svg" xmlns:xlink="http://www.w3.org/1999/xlink" x="0px" y="0px"
	 viewBox="0 0 36 36" enable-background="new 0 0 36 36" xml:space="preserve">
<path fill-opacity="0.12" stroke="#000000" stroke-width="2" stroke-linejoin="round" stroke-miterlimit="10" d="M31,15H21V5
	c0-0.6-0.4-1-1-1h-4c-0.6,0-1,0.4-1,1v10H5c-0.6,0-1,0.4-1,1v4c0,0.6,0.4,1,1,1h10v10c0,0.6,0.4,1,1,1h4c0.6,0,1-0.4,1-1V21h10
	c0.6,0,1-0.4,1-1v-4C32,15.4,31.6,15,31,15z"/>
</svg>
