<?xml version="1.0" encoding="utf-8"?>
<!-- Generator: Adobe Illustrator 18.1.0, SVG Export Plug-In . SVG Version: 6.00 Build 0)  -->
<!DOCTYPE svg PUBLIC "-//W3C//DTD SVG 1.1//EN" "http://www.w3.org/Graphics/SVG/1.1/DTD/svg11.dtd">
<svg version="1.1" id="Layer_1" xmlns="http://www.w3.org/2000/svg" xmlns:xlink="http://www.w3.org/1999/xlink" x="0px" y="0px"
	 viewBox="0 0 36 36" enable-background="new 0 0 36 36" xml:space="preserve">
<g>
	<g opacity="0.12">
		<path d="M17.7,35c-1,0-1.9-0.8-2-1.8l-0.1-1.4c-0.8-0.1-1.6-0.4-2.4-0.6l-0.8,1.2c-0.4,0.5-1,0.8-1.6,0.8c-0.3,0-0.7-0.1-1-0.3
			l-0.6-0.3C8.3,32,8,31,8.4,30L9,28.7c-0.6-0.5-1.2-1.1-1.7-1.7L6,27.6c-0.3,0.1-0.5,0.2-0.8,0.2c-0.7,0-1.3-0.4-1.7-1l-0.3-0.6
			c-0.5-0.9-0.3-2,0.6-2.6l1.2-0.8c-0.3-0.8-0.5-1.6-0.6-2.4l-1.4-0.1c-1-0.1-1.8-0.9-1.8-2v-0.7c0-1,0.8-1.9,1.8-2l1.4-0.1
			c0.1-0.8,0.4-1.6,0.6-2.4l-1.2-0.8c-0.8-0.6-1.1-1.7-0.6-2.6l0.3-0.6c0.3-0.6,1-1,1.7-1c0.3,0,0.6,0.1,0.8,0.2L7.3,9
			C7.8,8.4,8.4,7.8,9,7.3L8.4,6C8,5,8.3,4,9.2,3.4l0.6-0.3c0.3-0.2,0.6-0.3,1-0.3c0.6,0,1.2,0.3,1.6,0.8l0.8,1.2
			c0.8-0.3,1.6-0.5,2.4-0.6l0.1-1.4c0.1-1,0.9-1.8,2-1.8h0.7c1,0,1.9,0.8,2,1.8l0.1,1.4c0.8,0.1,1.6,0.4,2.4,0.6l0.8-1.2
			c0.4-0.5,1-0.8,1.6-0.8c0.3,0,0.7,0.1,1,0.3l0.6,0.3C27.7,4,28,5,27.6,6L27,7.3c0.6,0.5,1.2,1.1,1.7,1.7L30,8.4
			c0.3-0.1,0.5-0.2,0.8-0.2c0.7,0,1.3,0.4,1.7,1l0.3,0.6c0.5,0.9,0.3,2-0.6,2.6l-1.2,0.8c0.3,0.8,0.5,1.6,0.6,2.4l1.4,0.1
			c1,0.1,1.8,0.9,1.8,2v0.7c0,1-0.8,1.9-1.8,2l-1.4,0.1c-0.1,0.8-0.4,1.6-0.6,2.4l1.2,0.8c0.8,0.6,1.1,1.7,0.6,2.6l-0.3,0.6
			c-0.4,0.6-1,1-1.7,1l0,0c-0.3,0-0.6-0.1-0.8-0.2L28.7,27c-0.5,0.6-1.1,1.2-1.7,1.7l0.6,1.3c0.4,0.9,0.1,2-0.8,2.5l-0.6,0.3
			c-0.3,0.2-0.6,0.3-1,0.3c-0.6,0-1.2-0.3-1.6-0.8l-0.8-1.2c-0.8,0.3-1.6,0.5-2.4,0.6l-0.1,1.4c-0.1,1-0.9,1.8-2,1.8H17.7z M18,11
			c-3.9,0-7,3.1-7,7c0,3.9,3.1,7,7,7c3.9,0,7-3.1,7-7C25,14.1,21.9,11,18,11z"/>
	</g>
	<g>
		<path d="M18.3,2c0.5,0,0.9,0.4,1,0.9l0.2,2.2c1.3,0.1,2.5,0.5,3.7,1l1.3-1.8c0.2-0.3,0.5-0.4,0.8-0.4c0.2,0,0.3,0,0.5,0.1l0.6,0.3
			c0.4,0.2,0.6,0.8,0.4,1.2l-0.9,2c1,0.8,1.9,1.7,2.7,2.7l2-0.9c0.1-0.1,0.3-0.1,0.4-0.1c0.3,0,0.7,0.2,0.8,0.5l0.3,0.6
			c0.2,0.4,0.1,1-0.3,1.3l-1.8,1.3c0.5,1.1,0.8,2.4,1,3.7l2.2,0.2c0.5,0,0.9,0.5,0.9,1v0.7c0,0.5-0.4,0.9-0.9,1l-2.2,0.2
			c-0.1,1.3-0.5,2.5-1,3.7l1.8,1.3c0.4,0.3,0.5,0.8,0.3,1.3l-0.3,0.6c-0.2,0.3-0.5,0.5-0.8,0.5c-0.1,0-0.3,0-0.4-0.1l-2-0.9
			c-0.8,1-1.7,1.9-2.7,2.7l0.9,2c0.2,0.5,0,1-0.4,1.2L25.7,32c-0.2,0.1-0.3,0.1-0.5,0.1c-0.3,0-0.6-0.1-0.8-0.4l-1.3-1.8
			c-1.1,0.5-2.4,0.8-3.7,1l-0.2,2.2c0,0.5-0.5,0.9-1,0.9h-0.7c-0.5,0-0.9-0.4-1-0.9l-0.2-2.2c-1.3-0.1-2.5-0.5-3.7-1l-1.3,1.8
			c-0.2,0.3-0.5,0.4-0.8,0.4c-0.2,0-0.3,0-0.5-0.1l-0.6-0.3c-0.4-0.2-0.6-0.8-0.4-1.2l0.9-2c-1-0.8-1.9-1.7-2.7-2.7l-2,0.9
			c-0.1,0.1-0.3,0.1-0.4,0.1c-0.3,0-0.7-0.2-0.8-0.5L4,25.7c-0.2-0.4-0.1-1,0.3-1.3l1.8-1.3c-0.5-1.1-0.8-2.4-1-3.7l-2.2-0.2
			c-0.5,0-0.9-0.5-0.9-1v-0.7c0-0.5,0.4-0.9,0.9-1l2.2-0.2c0.1-1.3,0.5-2.5,1-3.7l-1.8-1.3c-0.4-0.3-0.5-0.8-0.3-1.3l0.3-0.6
			c0.2-0.3,0.5-0.5,0.8-0.5c0.1,0,0.3,0,0.4,0.1l2,0.9c0.8-1,1.7-1.9,2.7-2.7l-0.9-2c-0.2-0.5,0-1,0.4-1.2L10.3,4
			c0.2-0.1,0.3-0.1,0.5-0.1c0.3,0,0.6,0.1,0.8,0.4l1.3,1.8c1.1-0.5,2.4-0.8,3.7-1l0.2-2.2c0-0.5,0.5-0.9,1-0.9H18.3 M18,26
			c4.4,0,8-3.6,8-8s-3.6-8-8-8s-8,3.6-8,8S13.6,26,18,26 M18.3,0h-0.7c-1.5,0-2.8,1.2-2.9,2.7l-0.1,0.7c-0.4,0.1-0.7,0.2-1.1,0.3
			l-0.4-0.6c-0.6-0.8-1.5-1.3-2.4-1.3c-0.5,0-1,0.1-1.5,0.4L8.7,2.6C7.4,3.3,6.9,5,7.5,6.4L7.8,7C7.5,7.3,7.3,7.5,7,7.8L6.4,7.5
			C6,7.3,5.6,7.2,5.1,7.2c-1.1,0-2,0.6-2.6,1.5L2.2,9.3c-0.8,1.3-0.4,3,0.9,3.9l0.6,0.4c-0.1,0.4-0.2,0.7-0.3,1.1l-0.7,0.1
			C1.2,14.9,0,16.1,0,17.7v0.7c0,1.5,1.2,2.8,2.7,2.9l0.7,0.1c0.1,0.4,0.2,0.7,0.3,1.1l-0.6,0.4c-1.3,0.9-1.6,2.6-0.9,3.9l0.3,0.6
			c0.5,0.9,1.5,1.5,2.6,1.5c0.4,0,0.8-0.1,1.2-0.3L7,28.2c0.2,0.3,0.5,0.5,0.8,0.8l-0.3,0.6c-0.6,1.4-0.1,3,1.2,3.8l0.6,0.3
			c0.4,0.3,1,0.4,1.5,0.4c1,0,1.9-0.5,2.4-1.3l0.4-0.6c0.4,0.1,0.7,0.2,1.1,0.3l0.1,0.7c0.1,1.5,1.4,2.7,2.9,2.7h0.7
			c1.5,0,2.8-1.2,2.9-2.7l0.1-0.7c0.4-0.1,0.7-0.2,1.1-0.3l0.4,0.6c0.6,0.8,1.5,1.3,2.4,1.3c0.5,0,1-0.1,1.5-0.4l0.6-0.3
			c1.3-0.8,1.9-2.4,1.2-3.8L28.2,29c0.3-0.2,0.5-0.5,0.8-0.8l0.6,0.3c0.4,0.2,0.8,0.3,1.2,0.3c1.1,0,2-0.6,2.6-1.5l0.3-0.6
			c0.8-1.3,0.4-3-0.9-3.9l-0.6-0.4c0.1-0.4,0.2-0.7,0.3-1.1l0.7-0.1c1.5-0.1,2.7-1.4,2.7-2.9v-0.7c0-1.5-1.2-2.8-2.7-2.9l-0.7-0.1
			c-0.1-0.4-0.2-0.7-0.3-1.1l0.6-0.4c1.3-0.9,1.6-2.6,0.9-3.9l-0.3-0.6c-0.5-0.9-1.5-1.5-2.6-1.5c-0.4,0-0.8,0.1-1.2,0.3L29,7.8
			c-0.2-0.3-0.5-0.5-0.8-0.8l0.3-0.6c0.6-1.4,0.1-3-1.2-3.8l-0.6-0.3c-0.4-0.3-1-0.4-1.5-0.4c-1,0-1.9,0.5-2.4,1.3l-0.4,0.6
			c-0.4-0.1-0.7-0.2-1.1-0.3l-0.1-0.7C21.1,1.2,19.9,0,18.3,0L18.3,0z M18,24c-3.3,0-6-2.7-6-6s2.7-6,6-6s6,2.7,6,6S21.3,24,18,24
			L18,24z"/>
	</g>
</g>
</svg>
