<?xml version="1.0" encoding="utf-8"?>
<!-- Generator: Adobe Illustrator 18.1.0, SVG Export Plug-In . SVG Version: 6.00 Build 0)  -->
<!DOCTYPE svg PUBLIC "-//W3C//DTD SVG 1.1//EN" "http://www.w3.org/Graphics/SVG/1.1/DTD/svg11.dtd">
<svg version="1.1" id="Layer_1" xmlns="http://www.w3.org/2000/svg" xmlns:xlink="http://www.w3.org/1999/xlink" x="0px" y="0px"
	 viewBox="0 0 36 36" enable-background="new 0 0 36 36" xml:space="preserve">
<path fill-opacity="0.12" stroke="#000000" stroke-width="2" stroke-linejoin="round" stroke-miterlimit="10" d="M35,2.9
	C35,1.9,34.1,1,33.1,1c-0.1,0-11.5,0-11.5,0c-1,0-2-0.1-2.6,0.5L1.4,19.1c-0.6,0.6-0.6,1.5,0,2.1l13.4,13.4c0.6,0.6,1.5,0.6,2.1,0
	L34.5,17c0.6-0.6,0.5-1.5,0.5-2.6C35,14.4,35,3.1,35,2.9z M28.5,10C27.1,10,26,8.9,26,7.5C26,6.1,27.1,5,28.5,5
	C29.9,5,31,6.1,31,7.5C31,8.9,29.9,10,28.5,10z"/>
</svg>
