<?xml version="1.0" encoding="utf-8"?>
<!-- Generator: Adobe Illustrator 18.1.0, SVG Export Plug-In . SVG Version: 6.00 Build 0)  -->
<!DOCTYPE svg PUBLIC "-//W3C//DTD SVG 1.1//EN" "http://www.w3.org/Graphics/SVG/1.1/DTD/svg11.dtd">
<svg version="1.1" id="Layer_1" xmlns="http://www.w3.org/2000/svg" xmlns:xlink="http://www.w3.org/1999/xlink" x="0px" y="0px"
	 viewBox="0 0 36 36" enable-background="new 0 0 36 36" xml:space="preserve">
<path fill-opacity="0.12" stroke="#000000" stroke-width="2" stroke-linejoin="round" stroke-miterlimit="10" d="M35,8.5
	c-1.3,0.6-2.6,0.9-4,1.1c1.4-0.9,2.5-2.2,3.1-3.9c-1.3,0.8-2.8,1.4-4.4,1.7c-1.3-1.4-3.1-2.2-5.1-2.2c-3.9,0-7,3.1-7,7
	c0,0.5,0.1,1.1,0.2,1.6c-5.8-0.3-10.9-3.1-14.4-7.3c-0.6,1-0.9,2.2-0.9,3.5c0,2.4,1.2,4.6,3.1,5.8c-1.1,0-2.2-0.4-3.2-0.9
	c0,0,0,0.1,0,0.1c0,3.4,2.4,6.2,5.6,6.8c-0.6,0.2-1.2,0.2-1.8,0.2c-0.5,0-0.9,0-1.3-0.1c0.9,2.8,3.5,4.8,6.5,4.8
	c-2.4,1.9-5.4,3-8.7,3c-0.6,0-1.1,0-1.7-0.1c3.1,2,6.8,3.1,10.7,3.1c12.8,0,19.8-10.6,19.8-19.8c0-0.3,0-0.6,0-0.9
	C32.9,11.1,34.1,9.9,35,8.5z"/>
</svg>
