<?xml version="1.0" encoding="utf-8"?>
<!-- Generator: Adobe Illustrator 18.1.0, SVG Export Plug-In . SVG Version: 6.00 Build 0)  -->
<!DOCTYPE svg PUBLIC "-//W3C//DTD SVG 1.1//EN" "http://www.w3.org/Graphics/SVG/1.1/DTD/svg11.dtd">
<svg version="1.1" id="Layer_1" xmlns="http://www.w3.org/2000/svg" xmlns:xlink="http://www.w3.org/1999/xlink" x="0px" y="0px"
	 viewBox="0 0 36 36" enable-background="new 0 0 36 36" xml:space="preserve">
<path fill-opacity="0.12" stroke="#000000" stroke-width="2" stroke-linejoin="round" stroke-miterlimit="10" d="M22.2,24.6
	c0-0.2,0-0.6-0.1-1c3.7-0.4,6.2-1.2,6.2-2.2c0,0,0,0,0-0.1c-2.7-2.4,2.4-19.7-7.1-19.4C20.6,1.4,19.5,1,18,1
	C5.2,2,10.9,18.3,7.9,21.4l0,0c0,0,0,0,0,0l0,0l0,0c0,1,2.5,1.8,6,2.2c0,0.2,0,0.5-0.1,1C12.4,28.5,2.5,27.4,2,35h32
	C33.5,27.4,23.6,28.5,22.2,24.6z"/>
</svg>
