<?xml version="1.0" encoding="UTF-8" standalone="no"?>
<svg xmlns:dc="http://purl.org/dc/elements/1.1/"
xmlns:cc="http://creativecommons.org/ns#"
xmlns:rdf="http://www.w3.org/1999/02/22-rdf-syntax-ns#"
xmlns:svg="http://www.w3.org/2000/svg" xmlns="http://www.w3.org/2000/svg"
id="svg8" version="1.1" viewBox="0 0 156.70881 12.802836" height="38.388672"
width="582.28516">
    <defs id="defs2" />
    <metadata id="metadata5">
        <rdf:RDF>
            <cc:Work rdf:about="">
                <dc:format>image/svg+xml</dc:format>
                <dc:type rdf:resource="http://purl.org/dc/dcmitype/StillImage" />
                <dc:title></dc:title>
            </cc:Work>
        </rdf:RDF>
    </metadata>
    <g transform="translate(-24.125659,-7.1866412)" id="layer1">
        <g id="flowRoot4485"
        style="font-style:italic;font-variant:normal;font-weight:bold;font-stretch:normal;font-size:40px;line-height:25px;font-family:'URW
        Chancery L';-inkscape-font-specification:'URW Chancery L Bold
        Italic';text-align:center;letter-spacing:0px;word-spacing:0px;text-anchor:middle;fill:none;fill-opacity:1;stroke:#5555ff;stroke-width:3px;stroke-linecap:butt;stroke-linejoin:miter;stroke-opacity:1" transform="scale(0.26458333)" aria-label="Servicios de limpieza">
            <path id="path4493" d="m 123.67871,29.847656 -1.51367,7.714844 q -2.75879,-1.367188 -5.44434,-2.026367 -2.68554,-0.683594 -5.24902,-0.683594 -3.51563,0 -5.49316,1.098633 -1.95313,1.098633 -1.95313,3.051758 0,1.245117 0.85449,1.953125 0.87891,0.683593 3.58887,1.342773 l 3.85742,0.952149 q 4.83399,1.220703 7.08008,3.540039 2.27051,2.294921 2.27051,5.957031 0,5.932617 -4.5166,9.521484 -4.49219,3.588867 -12.08496,3.588867 -3.54004,0 -7.055669,-0.659179 -3.491211,-0.65918 -6.835937,-1.953125 l 1.489258,-7.934571 q 3.24707,1.879883 6.298828,2.807618 3.07617,0.927734 6.05469,0.927734 3.22265,0 5.22461,-1.318359 2.02636,-1.31836 2.02636,-3.369141 0,-1.342773 -0.90332,-2.075195 -0.90332,-0.756836 -3.95507,-1.538086 l -3.83301,-0.952149 Q 99.337891,48.744141 97.262695,46.473633 95.1875,44.203125 95.1875,40.589844 q 0,-5.688477 4.345703,-9.106446 4.370117,-3.442382 11.743167,-3.442382 2.9541,0 6.05468,0.463867 3.125,0.439453 6.34766,1.342773 z" />
            <path id="path4495" d="m 157.90723,52.503906 -0.29297,1.391602 h -20.45899 q 0,0.146484 -0.0244,0.439453 -0.0244,0.268555 -0.0244,0.415039 0,2.661133 1.58691,3.979492 1.61133,1.31836 4.80957,1.31836 2.75879,0 5.81055,-0.830079 3.07617,-0.830078 6.44531,-2.46582 l -1.34277,6.787109 q -3.19825,1.171875 -6.37207,1.733399 -3.14942,0.585937 -6.4209,0.585937 -6.39649,0 -9.8877,-2.954101 -3.4668,-2.954102 -3.4668,-8.34961 0,-3.125 1.09864,-6.054687 1.12304,-2.954102 3.24707,-5.395508 2.51465,-2.929687 6.00586,-4.443359 3.51562,-1.513672 7.78808,-1.513672 5.542,0 8.78907,2.954101 3.27148,2.954102 3.27148,7.958985 0,0.976562 -0.14648,2.075195 -0.12207,1.074219 -0.41504,2.368164 z M 149.65527,48.5 q 0.0733,-0.317383 0.0977,-0.634766 0.0488,-0.341797 0.0488,-0.659179 0,-1.953125 -1.17188,-3.100586 -1.17187,-1.147461 -3.17383,-1.147461 -2.56347,0 -4.37011,1.416015 -1.78223,1.391602 -2.73438,4.125977 z" />
            <path id="path4497" d="m 186.05664,45.25293 q -0.90332,-0.512696 -2.00195,-0.78125 -1.09864,-0.268555 -2.36817,-0.268555 -3.34472,0 -5.5664,2.148437 -2.19727,2.148438 -2.97852,6.201172 l -2.49023,12.597657 h -8.76465 l 5.32226,-27.34375 h 8.78907 l -0.95215,4.6875 q 1.7334,-2.587891 4.32129,-3.955079 2.6123,-1.391601 5.78613,-1.391601 0.46387,0 1.0498,0.04883 0.58594,0.04883 1.39161,0.146484 z" />
            <path id="path4499" d="m 188.20508,37.806641 h 8.05664 l 3.54004,19.091796 10.30273,-19.091796 h 8.86231 l -16.06446,27.34375 h -9.25293 z" />
            <path id="path4501" d="m 224.5332,37.806641 h 8.78907 l -5.34668,27.34375 h -8.76465 z m 2.05078,-10.644532 h 8.78907 l -1.3916,7.128907 h -8.81348 z" />
            <path id="path4503" d="m 263.91309,38.661133 -1.39161,7.128906 q -1.75781,-1.171875 -3.46679,-1.782227 -1.70899,-0.610351 -3.34473,-0.610351 -4.27246,0 -6.98242,2.880859 -2.70996,2.856446 -2.70996,7.324219 0,2.856445 1.68457,4.443359 1.68457,1.5625 4.76074,1.5625 2.05078,0 4.02832,-0.610351 1.97754,-0.610352 3.75977,-1.806641 l -1.34278,7.153321 q -2.17285,0.756835 -4.37011,1.123046 -2.19727,0.390625 -4.41895,0.390625 -6.44531,0 -9.93652,-2.880859 -3.4668,-2.905273 -3.4668,-8.227539 0,-3.344727 1.26953,-6.494141 1.29395,-3.149414 3.68652,-5.664062 2.66114,-2.758789 6.10352,-4.101563 3.44238,-1.342773 7.93457,-1.342773 2.0752,0 4.12598,0.390625 2.05078,0.366211 4.07715,1.123047 z" />
            <path id="path4505" d="m 271.4082,37.806641 h 8.78907 l -5.34668,27.34375 h -8.76465 z m 2.05078,-10.644532 h 8.78907 l -1.3916,7.128907 h -8.81348 z" />
            <path id="path4507" d="m 300.48535,43.397461 q -3.39355,0 -5.59082,3.076172 -2.19726,3.076172 -2.19726,7.836914 0,2.58789 1.17187,3.955078 1.19629,1.342773 3.4668,1.342773 3.39355,0 5.59082,-3.076171 2.19726,-3.100586 2.19726,-7.885743 0,-2.563476 -1.19629,-3.90625 -1.17187,-1.342773 -3.44238,-1.342773 z m 0.70801,-6.25 q 6.10351,0 9.59473,3.100586 3.49121,3.100586 3.49121,8.447265 0,3.100586 -1.09864,6.030274 -1.09863,2.905273 -3.19824,5.322266 -2.49023,2.880859 -5.88379,4.345703 -3.39355,1.464843 -7.56836,1.464843 -6.03027,0 -9.52148,-3.100586 -3.4668,-3.100585 -3.4668,-8.447265 0,-3.076172 1.12305,-6.00586 1.12305,-2.954101 3.22266,-5.395507 2.4414,-2.832032 5.81054,-4.296875 3.39356,-1.464844 7.49512,-1.464844 z" />
            <path id="path4509" d="m 344.11328,38.661133 -1.29394,6.787109 q -2.56348,-1.220703 -5.10254,-1.855469 -2.53907,-0.634765 -4.80957,-0.634765 -2.58789,0 -4.00391,0.683594 -1.3916,0.659179 -1.3916,1.904296 0,0.732422 0.78125,1.171875 0.78125,0.439454 3.07617,0.927735 l 1.58691,0.292969 q 5.29786,1.123046 7.42188,2.905273 2.12402,1.757812 2.12402,4.907227 0,4.760742 -3.73535,7.446289 -3.73535,2.661132 -10.44922,2.661132 -2.80761,0 -5.7373,-0.439453 -2.92969,-0.439453 -5.98145,-1.318359 l 1.31836,-6.860352 q 2.36817,1.391602 5.05371,2.09961 2.70996,0.708008 5.542,0.708008 2.75878,0 4.15039,-0.65918 1.3916,-0.65918 1.3916,-1.928711 0,-0.878906 -0.78125,-1.367188 -0.78125,-0.488281 -3.22266,-1.000976 l -1.58691,-0.292969 q -4.6875,-0.976562 -6.68946,-2.880859 -2.00195,-1.904297 -2.00195,-5.273438 0,-4.565429 3.44238,-7.03125 3.4668,-2.46582 9.8877,-2.46582 2.80762,0 5.51758,0.390625 2.73437,0.366211 5.49316,1.123047 z" />
            <path id="path4511" d="m 378.63477,59.510742 q 3.36914,0 5.46875,-3.100586 2.12402,-3.100586 2.12402,-8.105469 0,-2.270507 -1.19629,-3.540039 -1.17188,-1.269531 -3.2959,-1.269531 -3.32031,0 -5.46875,3.076172 -2.14844,3.051758 -2.14844,7.836914 0,2.490234 1.14746,3.808594 1.17188,1.293945 3.36915,1.293945 z m 9.2041,-17.700195 2.83203,-14.648438 h 8.81347 l -7.39746,37.988282 h -8.81347 l 0.80566,-3.955079 q -2.00195,2.392579 -4.19922,3.54004 -2.19726,1.123046 -4.80957,1.123046 -4.61426,0 -7.2998,-2.929687 -2.68555,-2.929688 -2.68555,-7.983399 0,-3.149414 0.92774,-6.127929 0.95214,-2.978516 2.70996,-5.419922 2.22168,-3.076172 5.00488,-4.663086 2.80762,-1.586914 6.00586,-1.586914 2.80762,0 4.76074,1.147461 1.97754,1.123047 3.34473,3.515625 z" />
            <path id="path4513" d="m 430.56348,52.503906 -0.29297,1.391602 h -20.45899 q 0,0.146484 -0.0244,0.439453 -0.0244,0.268555 -0.0244,0.415039 0,2.661133 1.58691,3.979492 1.61133,1.31836 4.80957,1.31836 2.75879,0 5.81055,-0.830079 3.07617,-0.830078 6.44531,-2.46582 l -1.34277,6.787109 q -3.19825,1.171875 -6.37207,1.733399 -3.14942,0.585937 -6.4209,0.585937 -6.39649,0 -9.8877,-2.954101 -3.4668,-2.954102 -3.4668,-8.34961 0,-3.125 1.09864,-6.054687 1.12304,-2.954102 3.24707,-5.395508 2.51465,-2.929687 6.00586,-4.443359 3.51562,-1.513672 7.78808,-1.513672 5.542,0 8.78907,2.954101 3.27148,2.954102 3.27148,7.958985 0,0.976562 -0.14648,2.075195 -0.12207,1.074219 -0.41504,2.368164 z M 422.31152,48.5 q 0.0733,-0.317383 0.0977,-0.634766 0.0488,-0.341797 0.0488,-0.659179 0,-1.953125 -1.17188,-3.100586 -1.17187,-1.147461 -3.17383,-1.147461 -2.56347,0 -4.37011,1.416015 -1.78223,1.391602 -2.73438,4.125977 z" />
            <path id="path4515" d="m 459.29883,27.162109 h 8.78906 l -7.39746,37.988282 h -8.76465 z" />
            <path id="path4517" d="m 474.43555,37.806641 h 8.78906 l -5.34668,27.34375 h -8.76465 z m 2.05078,-10.644532 h 8.78906 l -1.3916,7.128907 h -8.81348 z" />
            <path id="path4519" d="m 516.11035,42.347656 q 2.02637,-2.514648 4.58985,-3.857422 2.58789,-1.342773 5.37109,-1.342773 3.66211,0 5.76172,2.026367 2.12402,2.001953 2.12402,5.517578 0,0.732422 -0.12207,1.684571 -0.0977,0.927734 -0.31738,2.124023 l -3.24707,16.650391 h -8.81348 l 2.75879,-14.257813 0.0732,-0.366211 q 0.63477,-3.027344 0.63477,-3.881836 0,-1.342773 -0.78125,-2.124023 -0.75684,-0.78125 -2.0752,-0.78125 -2.51465,0 -4.27246,2.075195 -1.7334,2.050781 -2.49023,5.883789 l -2.63672,13.452149 h -8.81348 l 2.80762,-14.257813 q 0.36621,-1.831055 0.51269,-2.758789 0.14649,-0.952148 0.14649,-1.489258 0,-1.367187 -0.75684,-2.124023 -0.75683,-0.78125 -2.09961,-0.78125 -2.41699,0 -4.24804,2.148437 -1.80664,2.124024 -2.51465,5.810547 l -2.63672,13.452149 h -8.76465 l 5.32227,-27.34375 h 8.78906 l -0.80566,4.003906 q 2.05078,-2.319336 4.37011,-3.491211 2.31934,-1.171875 4.83399,-1.171875 2.83203,0 4.8584,1.464844 2.02636,1.440429 2.4414,3.735351 z" />
            <path id="path4521" d="m 548.01953,61.195312 -2.80762,14.355469 h -8.78906 l 7.34863,-37.74414 h 8.78907 l -0.80567,4.003906 q 2.00196,-2.392578 4.19922,-3.515625 2.19727,-1.147461 4.80957,-1.147461 4.61426,0 7.29981,2.929687 2.68554,2.929688 2.68554,7.983399 0,3.149414 -0.95215,6.12793 -0.92773,2.978515 -2.68554,5.419921 -2.22168,3.076172 -5.0293,4.663086 -2.7832,1.586914 -5.98144,1.586914 -2.80762,0 -4.78516,-1.123046 -1.95313,-1.147461 -3.2959,-3.54004 z m 9.17969,-17.700195 q -3.36914,0 -5.51758,3.125 -2.12402,3.100586 -2.12402,8.081055 0,2.246094 1.19629,3.540039 1.2207,1.269531 3.36914,1.269531 3.2959,0 5.44433,-3.051758 2.14844,-3.076172 2.14844,-7.861328 0,-2.490234 -1.17187,-3.784179 -1.14747,-1.31836 -3.34473,-1.31836 z" />
            <path id="path4523" d="m 579.61133,37.806641 h 8.78906 l -5.34668,27.34375 h -8.76465 z m 2.05078,-10.644532 h 8.78906 l -1.3916,7.128907 h -8.81348 z" />
            <path id="path4525" d="m 621.38379,52.503906 -0.29297,1.391602 h -20.45898 q 0,0.146484 -0.0244,0.439453 -0.0244,0.268555 -0.0244,0.415039 0,2.661133 1.58691,3.979492 1.61133,1.31836 4.80957,1.31836 2.75879,0 5.81055,-0.830079 3.07617,-0.830078 6.44531,-2.46582 l -1.34277,6.787109 q -3.19824,1.171875 -6.37207,1.733399 -3.14942,0.585937 -6.4209,0.585937 -6.39649,0 -9.8877,-2.954101 -3.46679,-2.954102 -3.46679,-8.34961 0,-3.125 1.09863,-6.054687 1.12305,-2.954102 3.24707,-5.395508 2.51465,-2.929687 6.00586,-4.443359 3.51562,-1.513672 7.78809,-1.513672 5.54199,0 8.78906,2.954101 3.27148,2.954102 3.27148,7.958985 0,0.976562 -0.14648,2.075195 -0.12207,1.074219 -0.41504,2.368164 z M 613.13184,48.5 q 0.0732,-0.317383 0.0977,-0.634766 0.0488,-0.341797 0.0488,-0.659179 0,-1.953125 -1.17187,-3.100586 -1.17188,-1.147461 -3.17383,-1.147461 -2.56348,0 -4.37012,1.416015 -1.78223,1.391602 -2.73438,4.125977 z" />
            <path id="path4527" d="m 629.26953,37.806641 h 23.85254 l -1.19629,6.103515 -17.04101,14.990235 h 14.13574 l -1.19629,6.25 h -24.43848 l 1.14746,-6.103516 17.08985,-14.990234 h -13.54981 z" />
            <path id="path4529" d="m 669.38184,52.845703 q -3.27149,0 -4.95606,1.025391 -1.66016,1.000976 -1.66016,2.978515 0,1.489258 0.97657,2.34375 1.00097,0.854493 2.73437,0.854493 2.68555,0 4.49219,-1.611329 1.80664,-1.635742 2.41699,-4.589843 l 0.19531,-1.000977 z m 13.64746,-3.295898 -3.05176,15.600586 h -8.74024 l 0.73243,-4.052735 q -2.14844,2.441406 -4.54102,3.613281 -2.39258,1.147461 -5.20019,1.147461 -3.88184,0 -6.17676,-2.001953 -2.27051,-2.026367 -2.27051,-5.444336 0,-5.224609 4.02832,-7.983398 4.05273,-2.783203 11.66992,-2.783203 h 5.15137 l 0.0977,-0.683594 q 0.0732,-0.341797 0.0732,-0.488281 0.0244,-0.146485 0.0244,-0.268555 0,-1.611328 -1.53808,-2.416992 -1.51368,-0.830078 -4.51661,-0.830078 -2.70996,0 -5.24902,0.561523 -2.53906,0.561524 -4.90723,1.684571 l 1.31836,-6.66504 q 2.73438,-0.683593 5.59082,-1.02539 2.88086,-0.366211 5.95704,-0.366211 6.0791,0 9.0332,2.099609 2.9541,2.075196 2.9541,6.347657 0,0.830078 -0.12207,1.831054 -0.0977,0.976563 -0.31738,2.124024 z" />
        </g>
    </g>
</svg>
