<?xml version="1.0" encoding="UTF-8" standalone="no"?>
<!-- Created with Inkscape (http://www.inkscape.org/) -->

<svg xmlns:dc="http://purl.org/dc/elements/1.1/" xmlns:cc="http://creativecommons.org/ns#" xmlns:rdf="http://www.w3.org/1999/02/22-rdf-syntax-ns#" xmlns:svg="http://www.w3.org/2000/svg" xmlns="http://www.w3.org/2000/svg" xmlns:xlink="http://www.w3.org/1999/xlink" xmlns:sodipodi="http://sodipodi.sourceforge.net/DTD/sodipodi-0.dtd" xmlns:inkscape="http://www.inkscape.org/namespaces/inkscape" id="svg9587" sodipodi:docname="fondo.svg" viewBox="0 0 919.49 660.03" version="1.1" inkscape:version="0.92.1 r" width="980.78931" height="704.03204">
    <defs id="defs9589">
        <linearGradient inkscape:collect="always" id="linearGradient4503">
            <stop style="stop-color:#5555ff;stop-opacity:1;" offset="0" id="stop4499" />
            <stop style="stop-color:#5555ff;stop-opacity:0;" offset="1" id="stop4501" />
        </linearGradient>
        <radialGradient inkscape:collect="always" xlink:href="#linearGradient4503" id="radialGradient4505" cx="428.965" cy="674.54498" fx="428.965" fy="674.54498" r="459.745" gradientTransform="matrix(1.5407041,-0.0073536,0.00528424,1.1071366,-235.50757,-69.114009)" gradientUnits="userSpaceOnUse" />
        <filter inkscape:collect="always" style="color-interpolation-filters:sRGB" id="filter4655" x="-0.24736635" width="1.4947327" y="-0.34460687" height="1.6892137">
            <feGaussianBlur inkscape:collect="always" stdDeviation="94.771201" id="feGaussianBlur4657" />
        </filter>
    </defs>
    <sodipodi:namedview id="base" bordercolor="#666666" inkscape:pageshadow="2" inkscape:window-y="21" fit-margin-left="0" pagecolor="#ffffff" fit-margin-top="0" inkscape:window-maximized="0" inkscape:zoom="0.56568543" inkscape:window-x="0" inkscape:window-height="747" showgrid="false" borderopacity="1.0" inkscape:current-layer="layer1" inkscape:cx="397.5569" inkscape:cy="343.24494" fit-margin-right="0" fit-margin-bottom="0" inkscape:window-width="1366" inkscape:pageopacity="0.0" inkscape:document-units="px" />
    <g id="layer1" inkscape:label="Layer 1" inkscape:groupmode="layer" transform="translate(30.78,-344.53)">
        <rect id="rect4878" style="fill:url(#radialGradient4505);fill-rule:nonzero;fill-opacity:1;filter:url(#filter4655)" rx="0" ry="4.2639999" height="660.03003" width="919.48999" y="344.53" x="-30.780001" />
        <path id="rect4878-9" style="opacity:0.37449;fill:#000eec;fill-opacity:0.58064514;fill-rule:evenodd;stroke:#ffffff;stroke-opacity:0.66667002" inkscape:connector-curvature="0" d="m -24.685,519.77 c -0.15345,0.071 -0.34625,0.3616 -0.59375,0.8438 -0.34731,0.6622 -2.7828,6.7416 -5.875,14.531 v 66.281 c 12.547,8.0215 29.472,14.704 53.375,21.063 10.849,2.8862 45.913,9.658 62.938,12.156 30.938,4.5397 68.137,8.5943 116,12.625 21.621,1.8208 47.463,3.7526 131.53,9.875 104.01,7.5752 159.74,12.54 219.38,19.531 149.27,17.501 257.22,43.389 336.28,80.656 v -16.781 c -50.461,-15.307 -99.47,-27.3 -158.5,-38.906 -50.622,-9.9528 -85.88,-15.815 -138.41,-23.031 -66.325,-9.1124 -113.15,-14.018 -263.03,-27.563 -83.503,-7.5457 -116.57,-11.097 -160.25,-17.156 -23.63,-3.2775 -73.422,-13.069 -88.125,-17.344 -42.07,-12.231 -66.878,-24.95 -83.906,-43.031 -13.144,-13.956 -19.614,-29.704 -20.188,-49.062 -0.0922,-3.1094 -0.2135,-4.4956 -0.5,-4.6875 -0.0433,-0.029 -0.0738,-0.024 -0.125,0 z m -6.4688,82.812 v 39.656 c 2.2297,0.434 4.1597,0.7744 5.2812,0.9687 51.073,8.8483 103.3,14.089 176.62,17.688 21.217,1.0412 78.079,2.9677 121.53,4.0938 32.341,0.838 86.644,2.4335 108.34,3.2187 78.239,2.8318 149.36,8.7287 210.53,17.438 25.176,3.5845 84.895,15.352 105.56,20.812 61.474,16.243 110.42,35.008 157.16,60.25 11.158,6.0262 23.008,13.085 34.469,20.406 v -28.844 c -50.189,-23.673 -112.08,-42.744 -189.5,-58.094 -54.433,-10.792 -116.56,-19.746 -187.66,-27.156 -50.024,-5.2136 -92.705,-8.7182 -215.69,-17.719 -105.2,-7.6988 -140.8,-10.837 -182.94,-16.062 -68.845,-8.5367 -112.42,-19.123 -138.75,-33.75 -1.8057,-1.0033 -3.4355,-1.9623 -4.9688,-2.9063 z m 0,40.406 v 46.062 c 18.935,1.3718 39.296,2.3412 60.469,2.9063 50.08,1.3364 96.904,0.4311 183.84,-3.5313 108.24,-4.9328 123.75,-5.5932 147.12,-6.3124 97.655,-3.0046 167.93,-0.5538 231.94,8.0312 25.958,3.4814 67.352,11.738 89.75,17.938 83.234,23.04 150.16,60.188 206.38,114.72 v -34.437 c -63.441,-40.665 -136.9,-69.645 -223.88,-88.344 -6.667,-1.4334 -13.304,-2.8084 -19.969,-4.125 -64.434,-12.706 -130.08,-19.981 -221.62,-24.844 -32.195,-1.71 -77.754,-3.2627 -153.41,-5.25 -125.62,-3.3001 -183.79,-6.6754 -243.97,-14.094 -22.079,-2.7217 -37.78,-5.1121 -56.656,-8.7187 z m 462.31,38.75 c -38.473,0.08 -82.781,1.3836 -138.78,3.9687 -153.14,7.0686 -172.65,7.718 -228.22,7.625 -31.668,-0.053 -65.336,-1.3209 -95.312,-3.4687 v 49.625 c 28.24,0.7146 58.273,-0.1164 91.156,-2.5 49.22,-3.5678 85.344,-7.8026 172.22,-20.156 20.234,-2.8774 45.619,-6.4504 56.438,-7.9687 65.13,-9.1411 113.8,-14.326 158.38,-16.844 107.35,-6.064 192.65,5.9717 265.22,37.438 38.701,16.78 74.606,39.535 107.31,68 23.214,20.203 48.457,47.57 68.781,74.438 v -47.531 c -43.526,-42.672 -97.272,-76.672 -157.09,-99.219 -30.387,-11.452 -62.373,-20.447 -97.125,-27.188 -30.664,-5.9474 -63.466,-10.134 -99.188,-12.75 -32.665,-2.3926 -65.308,-3.5492 -103.78,-3.4687 z m 62.25,9.6562 c -52.328,0.3445 -112.19,5.6927 -191.28,16.5 -10.512,1.4364 -33.822,4.718 -51.781,7.2812 -98.927,14.12 -130.98,18.016 -179.34,21.875 -37.379,2.983 -71.149,4.0974 -102.16,3.3438 v 43.781 c 21.647,-1.7802 44.449,-4.3243 70.969,-7.8437 46.513,-6.1726 91.206,-13.912 173.41,-30 116.74,-22.848 147.93,-28.484 192.72,-34.812 119.36,-16.867 203.72,-12.713 274.5,13.531 27.968,10.37 56.866,26.438 79.625,44.25 46.532,36.418 84.517,87.64 114.47,154.31 l 3.9688,8.7812 4.0625,-8.8438 c 1.2713,-2.7626 3.6504,-7.8642 5.7812,-12.437 v -37.063 c -20.304,-27.005 -45.953,-55.048 -68.969,-75.281 -43.729,-38.442 -95.431,-67.398 -150.34,-84.25 -19.504,-5.9854 -22.835,-6.8182 -48.625,-11.906 -20.375,-4.0191 -28.903,-5.4671 -38.438,-6.5626 -28.492,-3.2738 -57.166,-4.8629 -88.562,-4.6562 z" />
    </g>
    <metadata id="metadata10">
        <rdf:RDF>
            <cc:Work>
                <dc:format>image/svg+xml</dc:format>
                <dc:type rdf:resource="http://purl.org/dc/dcmitype/StillImage" />
                <cc:license rdf:resource="http://creativecommons.org/licenses/publicdomain/" />
                <dc:publisher>
                    <cc:Agent rdf:about="http://openclipart.org/">
                        <dc:title>Openclipart</dc:title>
                    </cc:Agent>
                </dc:publisher>
                <dc:title />
            </cc:Work>
            <cc:License rdf:about="http://creativecommons.org/licenses/publicdomain/">
                <cc:permits rdf:resource="http://creativecommons.org/ns#Reproduction" />
                <cc:permits rdf:resource="http://creativecommons.org/ns#Distribution" />
                <cc:permits rdf:resource="http://creativecommons.org/ns#DerivativeWorks" />
            </cc:License>
        </rdf:RDF>
    </metadata>
</svg>
