<?xml version="1.0" encoding="utf-8"?>
<!-- Generator: Adobe Illustrator 18.1.0, SVG Export Plug-In . SVG Version: 6.00 Build 0)  -->
<!DOCTYPE svg PUBLIC "-//W3C//DTD SVG 1.1//EN" "http://www.w3.org/Graphics/SVG/1.1/DTD/svg11.dtd">
<svg version="1.1" id="Layer_1" xmlns="http://www.w3.org/2000/svg" xmlns:xlink="http://www.w3.org/1999/xlink" x="0px" y="0px"
	 viewBox="0 0 36 36" enable-background="new 0 0 36 36" xml:space="preserve">
<path fill-opacity="0.12" stroke="#000000" stroke-width="2" stroke-linejoin="round" stroke-miterlimit="10" d="M32,29H7
	c-1.7,0-3,1.3-3,3v0c0,1.7,1.3,3,3,3h25"/>
<path fill="none" stroke="#000000" stroke-width="2" stroke-linejoin="round" stroke-miterlimit="10" d="M7,1C5.3,1,4,2.3,4,4v28
	c0-1.8,1.4-3,3-3c0.2,0,25,0,25,0V1H7z"/>
<path fill-opacity="0.4" d="M25,1v16l-4-2l-4,2V1H7C5.3,1,4,2.3,4,4v28c0-1.8,1.4-3,3-3c0.2,0,25,0,25,0V1H25z"/>
<polygon fill-opacity="0.12" stroke="#000000" stroke-width="2" stroke-linejoin="round" stroke-miterlimit="10" points="25,1 
	25,17 21,15 17,17 17,1 "/>
</svg>
