<?xml version="1.0" encoding="utf-8"?>
<!-- Generator: Adobe Illustrator 18.1.0, SVG Export Plug-In . SVG Version: 6.00 Build 0)  -->
<!DOCTYPE svg PUBLIC "-//W3C//DTD SVG 1.1//EN" "http://www.w3.org/Graphics/SVG/1.1/DTD/svg11.dtd">
<svg version="1.1" id="Layer_1" xmlns="http://www.w3.org/2000/svg" xmlns:xlink="http://www.w3.org/1999/xlink" x="0px" y="0px"
	 viewBox="0 0 36 36" enable-background="new 0 0 36 36" xml:space="preserve">
<path fill-opacity="0.12" stroke="#000000" stroke-width="2" stroke-linejoin="round" stroke-miterlimit="10" d="M18,1
	C8.6,1,1,8.6,1,18s7.6,17,17,17s17-7.6,17-17S27.4,1,18,1z M18,6c2.5,0,4.7,0.7,6.6,2L8,24.6c-1.3-1.9-2-4.2-2-6.6
	C6,11.4,11.4,6,18,6z M18,30c-2.5,0-4.7-0.7-6.6-2L28,11.4c1.3,1.9,2,4.2,2,6.6C30,24.6,24.6,30,18,30z"/>
</svg>
