<?xml version="1.0" encoding="utf-8"?>
<!-- Generator: Adobe Illustrator 18.1.0, SVG Export Plug-In . SVG Version: 6.00 Build 0)  -->
<!DOCTYPE svg PUBLIC "-//W3C//DTD SVG 1.1//EN" "http://www.w3.org/Graphics/SVG/1.1/DTD/svg11.dtd">
<svg version="1.1" id="Layer_1" xmlns="http://www.w3.org/2000/svg" xmlns:xlink="http://www.w3.org/1999/xlink" x="0px" y="0px"
	 viewBox="0 0 36 36" enable-background="new 0 0 36 36" xml:space="preserve">
<circle fill="none" stroke="#000000" stroke-width="2" stroke-linejoin="round" stroke-miterlimit="10" cx="18" cy="18" r="17"/>
<g>
	<path fill-opacity="0.4" d="M3.8,18.4C3.8,18.4,3.8,18.5,3.8,18.4l0.1,0.1c0.1,0.1,0.2,0.2,0.3,0.4c0,0,0,0,0,0.1c0,0,0,0.1,0,0.1
		l0,1.2l0.1,0.2l0.4-0.1c0,0,0,0,0,0c0,0,0,0,0,0l0,0c0,0,0,0,0.1,0L5,20.6l0.2-0.5c0,0,0,0,0,0c0,0,0,0,0.1,0l0.6-0.4
		c0,0,0.1,0,0.1,0c0,0,0.1,0,0.1,0.1l0.1,0l0.1-0.1c0,0,0.1-0.1,0.2,0l0,0c0,0,0,0,0,0l0.3,0.4l0.5,0.1l0.1-0.1c0,0,0,0,0,0l0,0
		c0,0,0,0,0.1,0l0.5,0.1c0,0,0,0,0,0l0.3,0.3l0-0.1c0,0,0,0,0,0c-0.1,0-0.2-0.1-0.2-0.2l0,0c0-0.1,0-0.1,0-0.2c0-0.1,0-0.1,0-0.1
		c0,0,0,0,0,0c0,0,0-0.1,0-0.1c0,0-0.1-0.1-0.1-0.1c0-0.1,0-0.2,0-0.2c0,0,0-0.1,0-0.1c0,0,0,0,0,0l0-0.1c0,0-0.1-0.1-0.1-0.2l0-0.1
		c0-0.1,0-0.2,0-0.3c0,0,0-0.1,0-0.1c-0.1,0-0.1-0.1-0.1-0.2v0l-0.1,0c0,0-0.1,0-0.1,0c0,0-0.1,0-0.1,0c0,0-0.1-0.1-0.1-0.1
		c0,0,0,0,0,0c0,0-0.1,0-0.1,0.1c0,0,0,0,0,0H7.1c-0.1,0-0.1,0-0.2-0.1c0,0,0,0,0,0H6.3c0,0,0,0,0,0h0c0,0,0,0,0,0c0,0,0,0,0,0
		c-0.4-0.1-0.6-0.1-0.6-0.1c0,0,0,0.1,0,0.1c0,0.1,0,0.1-0.1,0.2c0,0,0,0,0,0l-0.2,0.1c0,0,0,0-0.1,0c0,0,0,0,0,0l0,0c0,0,0,0,0,0
		l-0.1-0.1c-0.1,0-0.2-0.1-0.3-0.2c0,0-0.1-0.1-0.1-0.1c0-0.1,0-0.1,0-0.2c0.1-0.2,0.1-0.2,0.2-0.2c0,0,0,0,0.1,0l0,0l0.2,0
		c0.1,0,0.2,0,0.3,0.1c0,0,0.1,0,0.1,0c0,0,0-0.1,0-0.1c0,0,0,0,0,0c0,0,0,0,0,0l-0.4,0.1c0,0,0,0-0.1,0c0,0,0,0,0,0
		c-0.1,0-0.1-0.1-0.1-0.2l0-0.1c0,0,0-0.1,0-0.1l-0.1-0.1c0,0.1,0,0.1,0,0.2c0,0.2-0.2,0.4-0.4,0.4c-0.1,0-0.1,0-0.2-0.1
		c-0.1-0.1-0.2-0.3-0.2-0.4c0,0,0,0,0,0c0,0-0.1,0-0.1,0c-0.1,0-0.1-0.1-0.1-0.1c0-0.2,0-0.2,0-0.2l0-0.1c0,0,0,0,0,0l-0.4,1l0,0.3
		c0,0,0,0,0,0L3.8,18.4C3.7,18.4,3.7,18.4,3.8,18.4z"/>
	<path fill-opacity="0.4" d="M31.4,28.4C31.3,28.4,31.3,28.3,31.4,28.4c-0.1-0.1-0.1-0.1-0.1-0.1c0,0,0-0.1,0-0.1
		c-0.1,0.1-0.2,0.3-0.3,0.4c0,0,0,0,0,0c0,0.1,0,0.2,0,0.2l-0.1,0.1c-0.1,0.1-0.1,0.1-0.2,0.2c0,0-0.1,0.1-0.1,0.1c0,0,0,0,0,0h0
		c0,0,0,0-0.1,0c0,0,0,0-0.1,0c-0.3,0.4-0.5,0.5-0.5,0.5l-0.3,0.1c0,0,0,0,0,0c0,0-0.1,0-0.1,0l0,0c0,0-0.1-0.1-0.1-0.1
		c0-0.1,0-0.2,0-0.2c0.5-0.7,0.5-0.7,0.5-0.7l0.4-0.3l0.2-0.3c0,0,0,0,0-0.1c0,0,0.1-0.1,0.1-0.1l0,0c0,0,0,0-0.1,0h0
		c-0.1,0.1-0.4,0.3-0.6,0.4c0,0,0,0,0,0l-0.1,0.1c0,0.1-0.1,0.1-0.2,0.2c0,0,0,0-0.1,0h0l0,0.1l-0.3,0.5c0,0,0,0,0,0l-0.4,0.5
		c-0.1,0.1-0.1,0.1-0.2,0.1c0,0,0,0-0.1,0h-0.1l-0.1,0.1l-0.2,0.2l-0.4,0.4c-0.1,0-0.3,0.2-0.3,0.2l0,0c0,0,0,0,0,0l-0.8,0.5
		c0,0,0,0,0,0l-0.5,0.2c-0.3,0.1-0.6,0.1-0.8,0.2l0,0c-0.1,0-0.1,0.1-0.2,0.1c0,0,0,0,0,0c-0.1,0-0.1,0-0.2,0c0,0-0.1,0-0.1-0.1
		c0,0,0-0.1,0-0.1l0-0.1c0.1-0.1,0.1-0.2,0.2-0.3l0.1-0.1c0.1-0.2,0.1-0.2,0.2-0.4l0.1-0.3l0-0.1c0,0,0,0,0,0
		c0.2-0.4,0.4-1.1,0.5-1.7L26.1,28c0,0,0,0,0,0c0,0,0-0.1,0-0.1c0.1-0.2,0.1-0.3,0.2-0.5c0,0,0,0,0-0.1c0,0,0.1,0,0.1,0l0.1,0
		l0.2-0.4l0.3-0.3l0.2-1l0.1-0.3l0-0.1c0,0,0-0.1,0-0.1c0,0,0,0,0-0.1c0,0,0-0.1,0-0.1c0,0,0,0,0,0l0-0.2L27,24.6l-0.3-0.8
		c0,0,0-0.1,0-0.1l0.4-0.8l0-0.1l-0.2-0.3l-0.5,0c-0.1,0-0.1,0-0.1-0.1l-0.2-0.4l-0.2,0l-0.3,0l-0.3,0.1c0,0,0,0,0,0l-0.1,0
		c0,0,0,0,0,0l-0.6,0.1c0,0,0,0,0,0h-0.7l-0.5,0.1c-0.1,0-0.2,0.1-0.3,0.1c0,0,0,0,0,0c0,0-0.1,0-0.1,0l-0.2-0.2L22,21.8
		c0,0,0,0,0,0l0,0c0,0,0,0,0,0l-0.1-0.1c0,0,0,0,0,0l-0.2-0.3l-0.3-0.2c0,0,0,0,0,0l-0.4-0.6l-0.2-0.2l-0.1-0.2c0,0,0,0,0-0.1l0-0.1
		c0,0,0,0,0,0c0-0.1,0-0.2,0-0.3l-0.2-0.2c0,0-0.1-0.1,0-0.2l0.4-0.9l-0.1-0.7l-0.1-0.1c0,0,0,0,0,0c0,0,0,0,0-0.1c0,0,0-0.1,0-0.2
		c0,0,0,0,0-0.1l0.3-0.7c0.1-0.1,0.1-0.2,0.2-0.4c0.2-0.3,0.4-0.6,0.5-0.9c0,0,0-0.1,0.1-0.1l0.3-0.1l0.6-0.4l0.1-0.6c0,0,0,0,0,0
		c0,0,0-0.1,0-0.1l0.9-0.7l-0.1-0.1l-0.3,0.1c-0.1,0-0.2,0-0.2-0.1l-0.1-0.4l-0.1-0.1c0,0,0-0.1,0-0.1c0,0,0-0.1,0-0.1c0,0,0,0,0,0
		l0.1-0.5c0-0.2-0.1-0.4-0.1-0.6c0,0,0-0.1,0-0.1c0,0,0,0,0,0c0,0,0.1,0,0.1-0.1l0.1,0c0,0,0,0,0-0.1c0,0,0.1-0.1,0.1-0.1l0.1,0
		c0,0,0,0,0.1,0c0.2,0,0.2,0,0.3,0c0,0,0,0,0,0c0.5,0.1,0.5,0.1,0.7,0.1l0-0.2c0,0,0-0.1,0-0.1l0-0.1l-0.3-0.2c-0.1,0-0.1,0-0.2,0
		c0,0-0.1,0-0.1,0c0,0-0.1-0.1-0.1-0.1c0-0.1,0-0.1,0-0.2c0,0,0,0,0,0c0,0,0,0,0,0l0.1-0.2c0,0,0,0,0,0h-0.1c-0.1,0-0.1,0-0.2-0.1
		c0,0,0-0.1,0-0.2l0.1-0.2c0,0,0,0,0,0c0,0,0,0,0,0l0.1,0c0,0,0,0,0,0c0,0,0,0,0-0.1c0,0,0,0,0,0l-0.3,0.2c0,0,0,0,0,0l-0.4,0.1
		c-0.1,0-0.2,0-0.2-0.1c0,0-0.1-0.1-0.1-0.1L22.3,9c0,0,0,0,0,0c0,0,0,0,0,0c-0.1,0-0.1-0.1-0.1-0.1l0-0.2c0,0,0-0.1,0-0.1
		c0.1-0.1,0.2-0.2,0.2-0.2l0,0c0,0,0,0,0,0c0,0,0.1,0,0.1,0c0,0,0,0,0,0c0,0,0.1,0,0.1,0c0,0,0.1,0,0.1,0c0,0,0,0,0.1,0h0
		c0,0,0,0,0-0.1c0,0,0,0,0-0.1c0,0,0,0,0,0c0.1-0.6,0.1-0.6,0.3-0.6h0.2c0.1,0,0.1,0,0.2,0.1l0,0.1c0.3,0.1,0.3,0.1,0.3,0.2
		c0,0,0,0,0,0.1l0,0c0,0,0,0,0,0.1l0,0.2c0.8,0.7,0.8,0.7,0.8,0.8c0,0,0,0,0,0.1l0,0.1l0-0.1c0,0,0,0,0,0c0,0,0,0,0,0l0.1-0.1
		c0,0,0.1,0,0.1,0L25,8.7c0,0,0,0,0,0c0,0,0,0,0.1,0l0.2-0.1c0,0,0,0,0-0.1l-0.1-0.1c0,0,0-0.1,0-0.1l0-0.2c0,0,0,0,0,0
		c-0.1,0-0.3,0-0.4-0.1c0,0,0,0,0-0.1l-0.1-0.1L24.2,7c0-0.1,0-0.1,0-0.2l0.3-0.4c0,0,0,0,0,0c0,0,0,0,0,0l0.1-0.6l0-0.1
		c0,0,0,0,0-0.1c0,0,0-0.1,0-0.1l0.1-0.1c0,0,0-0.1,0-0.1l0-0.1c0,0,0,0,0-0.1c0,0,0.1-0.1,0.1-0.1l0.1,0l0-0.1c0,0,0-0.1,0.1-0.1
		c0,0,0.1,0,0.1,0h0.2c0,0,0,0,0,0l0.3,0.1c0,0,0,0,0.1,0L26,5.2l0.2,0.1c0,0,0,0,0,0c0,0,0.1,0,0.1,0l0.3,0.1c0,0,0,0,0,0
		c0.1,0,0.1,0.1,0.2,0.1c0.1,0,0.1,0.1,0.2,0.1c0,0,0-0.1,0-0.1c0-0.1,0.1-0.1,0.2,0l0.3,0.1l0-0.1c0,0,0-0.1,0-0.1c0,0,0,0-0.1,0
		l-0.1,0c0,0,0,0-0.1,0c0,0-0.1,0-0.1,0C26.7,5,26.7,5,26.7,5c0,0,0,0-0.1-0.1c0,0-0.1-0.1-0.1-0.2c0,0-0.1,0-0.1-0.1
		c0,0-0.1-0.1-0.1-0.1c-0.1-0.1-0.2-0.2-0.3-0.3c0-0.1,0-0.1,0-0.2c0,0,0.1-0.1,0.1,0c0,0,0.1-0.1,0.2,0c0.3,0.1,0.3,0.1,0.3,0.2
		c0,0,0.1,0.1,0.1,0.1c0,0,0,0,0,0.1l0,0c0.2,0.2,0.2,0.3,0.2,0.3c0,0,0,0,0,0l0.3,0.2c0,0,0,0,0.1,0l-0.1-0.1c0,0-0.1-0.1,0-0.2
		c0,0,0,0,0-0.1c0,0,0,0,0,0c-0.1-0.1-0.3-0.2-0.4-0.3l-0.1-0.1c0,0,0,0,0,0c0,0,0,0,0,0L26.5,4c0,0,0,0,0,0c0,0,0,0-0.1,0
		c0,0,0,0,0,0c0,0,0,0,0,0l0,0c-0.2-0.1-0.2-0.1-0.2-0.1c-0.4-0.2-0.4-0.2-0.4-0.2l0,0c0,0-0.1,0-0.1-0.1c-0.1,0-0.1-0.1,0-0.2
		c0-0.1,0.1-0.1,0.1-0.1c0,0,0,0,0,0c0,0,0,0,0,0l0.1,0h0c0,0,0,0,0,0c0,0,0,0,0,0l0.1,0c0,0,0,0,0,0c0,0,0.1,0,0.1,0c0,0,0,0,0,0
		l0,0c0,0,0.1,0,0.1,0c0,0,0,0,0,0l0.1,0c0,0,0,0,0,0c0,0,0.1,0,0.1,0.1c0,0,0.1,0,0.1,0c0,0,0,0,0,0c0.1,0.1,0.2,0.1,0.3,0.2
		c0,0,0,0,0,0L27,4c0,0,0,0,0,0c0.9,0.6,1.9,1.3,2.7,2c2.8,2.6,4.6,6.2,5.2,10c0,0.1,0,0.1-0.1,0.1c0,0,0,0,0,0l0.2,0.8c0,0,0,0,0,0
		c0,0.3,0,0.7-0.1,1.1l0,0.2c0,0,0,0,0,0l-0.2,0.4c0,0,0,0.1-0.1,0.1c0,0,0,0.1,0,0.1c0,0,0,0,0,0.1l-0.3,0.5c0,0,0,0,0,0.1
		l-0.4,0.4c0,0,0,0,0,0c0,0,0,0,0,0c0,0,0,0,0,0l0,0.1l0,0c0,0,0,0,0,0c0.1-0.1,0.1-0.1,0.2-0.2l0.2-0.2c0,0,0.1,0,0.1,0
		c0,0,0.1,0.1,0.1,0.1l0,0.2c0,0,0,0.1,0,0.1c0,0.3-0.1,0.7-0.2,1l-0.1,0.3c0,0.1-0.2,0.5-0.3,0.8c0,0,0,0,0,0l-0.3,0.7
		c0,0,0,0.1-0.1,0.1L33.3,23l-0.5,0.8c0,0,0,0-0.1,0.1L32.6,24l-0.2,0.3c0,0.1-0.1,0.2-0.1,0.3c0,0,0,0,0,0l-0.1,0.1L32,25.1l0,0.2
		l-0.2,0.6v0.1c0,0,0,0,0,0.1l0,0.1c0,0.1,0,0.1-0.1,0.1c0,0,0,0.1,0,0.1c0,0,0,0,0,0h0c0,0,0.1,0,0.1,0c0,0,0,0,0,0
		c0,0,0.1,0.1,0.1,0.2c0.1-0.2,0.1-0.2,0.2-0.2c0,0,0.1,0,0.2,0c0,0,0.1,0.1,0.1,0.1c0,0.2,0,0.2-0.1,0.2l-0.5,0.8
		c0,0.1-0.1,0.1-0.1,0.1c0,0,0,0,0,0c0,0-0.1,0.1-0.1,0.1c0,0,0,0,0.1-0.1c0.1,0,0.1,0,0.2,0c0,0,0,0.1,0,0.1c0,0,0,0,0,0
		c2-2.8,3.2-6.2,3.2-9.9c0-9.4-7.6-17-17-17S1,8.6,1,18s7.6,17,17,17C23.5,35,28.3,32.4,31.4,28.4C31.4,28.4,31.4,28.4,31.4,28.4z
		 M26.3,22.9C26.3,22.9,26.3,22.9,26.3,22.9c0.2,0,0.3,0.1,0.4,0.1c0.1,0.1,0.1,0.2,0.1,0.3c-0.1,0.2-0.2,0.3-0.5,0.3
		c-0.1,0-0.2,0-0.2-0.1c-0.1-0.1-0.2-0.2-0.1-0.4C25.9,23.1,26.1,22.9,26.3,22.9z M22.6,3.8c0,0,0.1-0.1,0.1-0.1H23c0,0,0.1,0,0.1,0
		c0,0,0.1,0,0.1,0c0,0,0,0,0,0l0.1,0c0,0,0,0,0.1,0l0.2,0c0,0,0,0,0.1,0c0,0,0,0,0,0c0.2,0.1,0.2,0.1,0.2,0.1c0,0,0,0,0,0
		C23.9,3.9,24,3.9,23.9,4C24.1,4,24.1,4,24.1,4.1c0,0,0.1,0.1,0.1,0.2c0,0.1-0.1,0.1-0.1,0.1c0,0,0,0,0,0h-0.1c0,0,0,0.1,0,0.1
		c0,0-0.1,0.1-0.1,0.1c0,0,0,0,0,0c0,0,0,0,0,0h0c-0.4-0.1-0.4-0.1-0.5-0.2l-0.1-0.1c0,0-0.1,0-0.1,0l-0.2-0.1c0,0,0,0,0,0
		C22.6,3.9,22.6,3.9,22.6,3.8C22.6,3.8,22.6,3.8,22.6,3.8z M19.4,5.9C19.3,5.9,19.3,5.9,19.4,5.9l-0.3,0l-0.4,0.2
		c-0.2,0.2-0.3,0.2-0.3,0.2c0,0,0,0,0,0l-0.1,0l-0.1,0c0,0,0,0-0.1,0l-0.4,0.2c-0.2,0.2-0.4,0.4-0.6,0.6l-0.2,0.2c0,0,0,0,0,0
		l-0.3,0.1c-0.1,0-0.1,0-0.2,0c0,0,0,0,0,0l-0.1-0.2H16c0,0,0,0-0.1,0c0,0,0,0-0.1,0c0,0,0,0,0-0.1l-0.2-0.6c0,0,0-0.1,0-0.1
		c0-0.1,0.1-0.1,0.1-0.1c0,0,0,0,0,0l0.1,0c0,0,0,0,0,0c0,0,0,0,0-0.1c0,0,0,0,0-0.1l0.1-0.3c0,0,0,0,0,0c0,0,0-0.1,0.1-0.1
		c0.3-0.3,0.3-0.3,0.4-0.3l0.2,0c0,0,0,0,0,0l0,0c0,0,0-0.1,0-0.1c0,0,0-0.1,0-0.1c0,0,0-0.1,0-0.1c0,0,0-0.1,0-0.1l0.1-0.3l0-0.1
		l-0.1,0c-0.1,0-0.2,0-0.4,0c0,0,0,0-0.1,0c0,0-0.1-0.1-0.1-0.1l0-0.1c0,0,0,0,0,0c0,0,0,0,0-0.1c0,0,0-0.1,0-0.1c0,0,0,0,0,0
		c0,0,0,0,0-0.1l0,0c0,0-0.1,0.1-0.1,0.1l-0.2,0.1c0,0,0,0,0,0h-0.1c0,0-0.1,0-0.1,0.1c-0.1,0.1-0.3,0.2-0.4,0.2c0,0,0,0-0.1,0
		c0,0,0,0,0,0c-0.1,0.1-0.2,0.2-0.2,0.2l0,0c0,0,0,0,0,0c0,0,0,0,0,0C15,5.1,15,5.1,14.9,5.2l-0.2,0.2c0.3,0.4,0.3,0.4,0.3,0.5
		c0,0,0,0.1-0.1,0.1c0,0,0,0,0,0c-0.6,0.3-0.6,0.3-0.7,0.3c0,0-0.1,0-0.1,0c-0.4,0.4-0.4,0.4-0.4,0.4h-0.1c0,0-0.1,0-0.1,0
		c0,0,0,0,0,0c-0.1,0.2-0.1,0.2-0.2,0.3l0,0c0.1,0,0.1,0.1,0.1,0.2c0,0,0,0.2-0.1,0.7l0,0.1c0,0,0,0,0,0l0.1,0
		c0.1,0,0.1,0.1,0.1,0.2l0,0c0,0.1,0,0.2-0.1,0.3c0,0,0,0,0,0l0.3,0.1c0.1,0,0.1,0,0.1,0.1c0,0,0,0.1,0,0.1c0,0,0,0,0,0l-0.1,0.2
		c0,0,0.1,0.1,0.1,0.1c0,0.1,0,0.1-0.1,0.2l-0.2,0.2c0.1,0.1,0.1,0.1,0.2,0.1c0,0,0,0.1,0,0.1l0,0.1c0.1,0,0.1,0.1,0.1,0.2
		c0,0.1,0,0.1,0,0.1c0,0.1-0.1,0.1-0.1,0.1c-0.3,0.2-0.3,0.2-0.3,0.2c0,0,0,0,0,0H13c0,0-0.1,0-0.1,0c0,0-0.1,0-0.1,0l-0.1,0
		c-0.1,0-0.1-0.1-0.2-0.1l0-0.1C12,10.1,12,10.1,11.9,10c0,0,0-0.1,0-0.2L12,9.7c0,0,0-0.1,0-0.1c0-0.1,0.1-0.1,0.1-0.1l0,0h-0.6
		c0,0,0,0.1,0,0.1l0,0c0,0,0,0.1,0,0.1l-0.2,0.2c0,0-0.1,0-0.1,0h0c0,0.1,0,0.1,0,0.2l0.1,0.1c0.4-0.4,0.4-0.4,0.5-0.5
		c0.1,0,0.1,0,0.2,0.1c0,0,0,0.1,0,0.1l0,0.2c0.1,0.1,0.1,0.1,0,0.2c0,0,0,0.1,0,0.1c-0.2,0.1-0.2,0.1-0.3,0.1c0,0,0,0,0,0h-0.2
		c0,0,0,0,0,0l0,0c0,0,0,0-0.1,0L11,10.8c-0.3,0.1-0.5,0.2-0.8,0.3c-0.1,0-0.1,0-0.2,0l0,0c0,0,0-0.1,0-0.1l0-0.1L9.6,11
		c0,0,0,0-0.1,0c0,0,0,0,0,0H9.3l-0.1,0.2l0,0c0,0.1,0,0.1,0,0.1L9,11.6c0,0-0.1,0-0.1,0l-0.7,0.1l-0.1,0.1c0,0,0,0,0,0l-0.6,0.6
		c-0.1,0.1-0.1,0.1-0.2,0c0,0,0,0,0,0c0,0.2-0.1,0.3-0.1,0.5c0,0,0,0.1-0.1,0.1c0,0,0,0,0,0c-0.2,0.1-0.5,0.3-0.7,0.5L6,13.9
		c0,0,0,0-0.1,0h0l-0.3,0.6c0,0.2-0.1,0.5-0.1,0.7l-0.1,0.4h0.1c0.1,0,0.2,0.1,0.2,0.1c0.1,0.4,0.1,0.4,0,0.4c0,0.1-0.1,0.1-0.2,0.1
		c0,0,0,0,0,0H5.3c-0.1,0-0.2-0.1-0.2-0.1L5.1,16c0,0,0,0,0,0L5,16c0,0-0.1,0-0.1,0c-0.1,0-0.1,0-0.3-0.1c0,0-0.1-0.1-0.1-0.1l0-1.1
		l-0.4-0.1c0,0.1-0.1,0.3-0.2,0.3c-0.1,0-0.1,0-0.2,0l-0.3-0.3H3.3c-0.2,0.2-0.3,0.5-0.5,0.8l-0.1,0.2L2.5,16l-0.2,1l0.2,0.5l0.2,0
		l0.1-0.5c0-0.1,0.1-0.1,0.1-0.1l0.6-0.1c0,0,0,0,0.1,0c0,0,0,0,0.1,0c0.2-0.4,0.2-0.4,0.3-0.5c0,0,0,0,0,0l0.4-0.1c0,0,0,0,0,0
		c0,0,0.1,0,0.1,0c0.2,0.1,0.4,0.3,0.7,0.5c0.2,0.1,0.3,0.2,0.5,0.3l0,0c0-0.1,0.1-0.1,0.1-0.2c0-0.1,0.1-0.1,0.1-0.1
		c0.1,0,0.2,0,0.2,0.1c0.1,0.3,0.1,0.3,0.1,0.4c0,0.1-0.1,0.2-0.2,0.2c0,0,0,0,0,0H6c0,0,0,0,0,0c0,0,0,0,0,0c0,0,0,0,0,0l0,0
		c0,0,0,0,0,0c0,0,0,0,0,0h0.1c0,0,0,0,0,0c0,0,0.1,0,0.1,0c0.1,0,0.1,0,0.1,0l0.2,0.1L7,17.7l0,0c0-0.1,0.1-0.1,0.1-0.1
		c0,0,0.1,0,0.1,0l0.1,0.1c0.1,0,0.1,0.1,0.2,0.1c0,0,0.1-0.1,0.1-0.1c0,0,0.1,0,0.1,0c0,0,0.1,0,0.2,0c0.1,0,0.3,0.1,0.4,0.1
		c0.1,0,0.1,0.1,0.2,0.2h0c0.1,0,0.1,0,0.2,0.1c0,0,0.1,0.1,0,0.2c0,0,0,0,0,0c0,0,0.1,0,0.1,0.1C9,18.6,9,18.6,9,18.7
		c0,0.1-0.1,0.1-0.1,0.2c0,0,0,0.1,0,0.1c0,0,0,0,0,0c0.1,0.2,0.1,0.3,0.1,0.4c0,0,0,0-0.1,0.1c0,0.1,0.1,0.2,0.1,0.2
		C9,19.8,9,19.8,9,19.9C9,19.9,9,20,8.9,20C9,20.2,9,20.2,9,20.2c0,0,0,0,0,0c0.1,0,0.3,0,0.5,0c0.1,0,0.1,0.1,0.1,0.1v0.1
		c0,0,0,0.1,0,0.1l-0.1,0.1c0,0.1,0,0.1,0,0.3c0,0.1,0,0.1-0.1,0.1l0,0c0,0,0,0-0.1,0l0.5,0.5l0.4-0.1c0,0,0.1,0,0.1,0l0.2,0.2
		l0.7,0.3c0,0,0,0,0.1,0l0,0c0,0,0,0,0,0.1l0.4,0.6l0.3,0.3l0,0c0,0,0.1,0,0.1,0.1c0,0,0,0,0,0.1c0,0,0,0.1,0,0.1l0,0l0.1,0
		c0,0,0,0,0,0l0.4,0.3l0.4,0.1l1.1,0.1c0,0,0,0,0,0c0.4,0.2,1,0.5,1.4,0.7c0,0,0.1,0.1,0.1,0.1l0.2,0.8c0,0,0,0,0,0c0,0,0,0.1,0,0.1
		l-0.3,0.5c0,0,0,0,0,0l-0.2,0.5c0,0,0,0,0,0l0,0c0,0,0,0,0,0l-0.1,0.1L15,26.9l0.2,0.8c0,0,0,0,0,0.1c-0.1,0.3-0.1,0.7-0.2,1l0,0.2
		c0,0,0,0.1-0.1,0.1c-0.3,0.2-0.7,0.4-1,0.6l0.3,0.7c0,0.1,0,0.1,0,0.1l0,0l0,0.2c0,0,0,0,0,0.1c0,0,0,0.1,0,0.1l0,0L14,31.2
		c0,0,0,0,0,0.1l0,0l-0.1,0.2c0,0,0,0,0,0c0,0-0.1,0.1-0.1,0.1l0,0c0,0,0.1,0,0.1,0.1c0,0,0,0,0,0.1l0,0.3c0,0,0,0,0,0
		c0,0,0,0.1-0.1,0.1l-0.2,0.1c0,0,0,0,0,0c0,0,0,0.1,0,0.2l0,0c0,0,0,0,0,0c0.1,0.2,0.3,0.3,0.4,0.5c0,0,0,0.1,0,0.1l0.2,0.1
		c0,0,0,0,0.1,0c0,0,0.1,0.1,0.1,0.1c0,0,0,0,0,0l0.2,0.3l0.2,0.1c0,0,0,0,0,0l0.1,0.1c0,0,0,0,0,0c0,0,0,0,0,0l0.2,0.1
		c0,0,0-0.1,0-0.1c0-0.1,0-0.1,0.1-0.2c0,0,0,0,0.1,0c0,0,0,0,0.1,0c0,0,0,0,0.1,0c0.2,0.1,0.2,0.1,0.2,0.1l0.1,0.1c0,0,0,0.1,0,0.1
		c0,0,0,0.1-0.1,0.1c0,0,0,0-0.1,0c0,0-0.1,0-0.1,0c0,0,0,0,0,0c0,0,0,0,0,0c0,0,0,0.1,0,0.1c0,0-0.1,0.1-0.1,0.1l0,0
		c0,0-0.1,0.1-0.1,0.1c0,0-0.1,0-0.2,0c0,0,0,0,0,0c0,0,0,0-0.1,0c0,0,0,0,0,0l-0.3-0.1c0,0-0.1,0-0.1-0.1c0,0,0,0,0,0c0,0,0,0,0,0
		c0,0-0.1,0-0.1,0l-0.3-0.1c0,0-0.1,0-0.1-0.1l-0.1,0c0,0,0,0,0,0l-0.1,0c0,0,0,0,0,0h0c0,0-0.1,0-0.1,0l-0.1-0.1c0,0-0.1,0-0.1,0
		c0,0,0,0-0.1,0c0,0-0.1-0.1-0.1-0.1l0,0l-0.1,0c-0.1,0-0.2-0.1-0.3-0.1c0,0,0,0,0,0l0-0.1L13,33.4c0,0,0,0-0.1-0.1l-0.1-0.1
		c0,0,0,0,0,0c0,0-0.1,0-0.1,0c-0.2-0.2-0.3-0.2-0.3-0.2c-0.1,0-0.1,0-0.2-0.1c0,0,0,0,0,0l-0.1-0.1c0,0-0.1-0.1-0.1-0.1l-0.3-0.2
		c0,0,0,0,0,0c-1-1-1.3-1.3-2.1-2.4c-0.4-0.5-0.8-1.2-1.1-1.7l-0.1-0.1c-0.3-0.1-0.3-0.2-0.4-0.2c0,0,0,0,0,0l-0.8-0.4
		c-0.1-0.1-0.7-0.8-1.2-1.4c0,0,0,0,0,0c0,0,0,0,0,0l-0.3-0.4l-0.6-0.5c0,0,0,0,0,0l-0.3-0.6c0,0,0-0.1,0-0.1c0,0,0-0.1,0-0.1l0,0
		c0,0,0,0,0,0c0,0,0,0-0.1-0.1c0,0,0,0,0-0.1l0,0c0-0.1-0.1-0.3-0.1-0.4c0,0,0,0,0,0c0,0,0,0,0-0.1l0.1-0.6l0.1-0.3l0.1-0.3
		c-0.1-0.4-0.2-0.8-0.2-1.2l-0.1-0.1c0,0,0,0.1-0.1,0.1l-0.2,0.1c-0.1,0-0.1,0-0.2,0L4,21.2c0,0,0,0,0,0c0,0,0,0-0.1,0
		c0,0-0.1,0-0.1-0.1l0,0l-0.1-0.2l0,0c-0.1,0-0.1,0-0.2,0l-0.1-0.1c0,0,0,0,0,0l-0.3-1c0,0,0,0,0,0l-0.2-0.1c0,0-0.1,0-0.1-0.1
		l-0.2-0.2c0,0,0,0,0,0l-0.1-0.1c0,0,0,0,0,0c0,0,0,0,0,0l-0.1-0.4l-0.2,0.1c-0.1,0-0.1,0-0.2,0l-0.4-0.4c0,0,0,0,0-0.1
		c-0.1-0.3-0.2-0.6-0.3-0.9l-0.1-0.3c0,0,0,0,0-0.1l0.1-0.8l0-0.7l0-0.6c0.4-2.2,1.3-4.2,2.5-6.1l0.1-0.1c0,0,0.1-0.1,0.1-0.1
		l0.1-0.1c0.1-0.1,0.1-0.2,0.1-0.2l0,0c0,0,0,0,0,0c0.3-0.3,0.3-0.3,0.3-0.3c0,0,0.1,0,0.1,0l0-0.1c0,0,0-0.1,0-0.2
		c0.1-0.1,0.1-0.2,0.2-0.2c0,0,0,0,0,0c0,0,0,0,0,0c0,0,0.1-0.1,0.1-0.1l0.1-0.1c0.1-0.1,0.1-0.1,0.1-0.1c0,0,0-0.1,0.1-0.1
		c0.3-0.3,0.3-0.3,0.4-0.3h0.1l0.1-0.1c0,0,0-0.1,0-0.1l0.3-0.4c0,0,0,0,0-0.1c0.7-0.6,1.4-1.2,2.2-1.8l0.5-0.2c0,0,0,0,0,0
		c0.1,0,0.3,0,0.4,0c0,0,0.1,0,0.1,0c0.1,0,0.1,0.1,0.1,0.2c0,0.1,0,0.1-0.1,0.2c0,0,0,0,0,0l0.3-0.1c0,0,0.1,0,0.1,0l0,0l0.1,0
		c0.1,0,0.1,0,0.2,0c0,0,0,0,0,0c0,0,0.1,0,0.1,0.1l0,0.1c0,0,0,0,0-0.1c0,0-0.1-0.1-0.1-0.2c0,0,0-0.1,0.1-0.1l0.3-0.2c0,0,0,0,0,0
		L11.2,4c0,0,0,0,0,0c0,0,0,0,0,0h0.3c0,0,0,0,0,0c0,0,0,0,0,0c0.1-0.1,0.1-0.2,0.2-0.2l0.3-0.1c0,0,0,0,0,0l0.5,0
		c0.1,0,0.1,0,0.2,0.1c0,0,0,0,0,0c0,0,0.1-0.1,0.1-0.1c0,0,0.1-0.1,0.2,0l0,0c0.1-0.1,0.1-0.1,0.2-0.1c0,0,0.1,0,0.1,0
		c0.1,0.1,0.1,0.1,0.1,0.2c0,0,0,0.1,0,0.1c0,0,0,0,0,0l0.1-0.2c0,0,0,0,0,0c0.2-0.2,0.2-0.2,0.3-0.2c0.1,0,0.1,0,0.1,0.1
		c0,0,0,0.1,0,0.1L14,3.8c0,0,0,0,0,0c0,0,0,0,0,0c0.1,0,0.2,0,0.2,0.1c0,0,0,0,0,0c0,0,0,0,0,0c0,0,0-0.1,0-0.2l0.2-0.3
		c0,0,0,0,0,0l0.2-0.2c0.1-0.1,0.1-0.1,0.2-0.1c0.1,0,0.2,0.1,0.2,0.1l0,0.2c0,0,0.1,0,0.1-0.1c0-0.1,0.1-0.2,0.1-0.2
		c0-0.1,0.1-0.1,0.2-0.2c0,0,0.1,0,0.1,0c0.1,0,0.1,0,0.1-0.1c0,0,0.1-0.1,0.1-0.1c0,0,0.1,0,0.1-0.1c0,0,0.1,0,0.1,0
		c0,0,0-0.1,0.1-0.1c0.1-0.1,0.2-0.1,0.3-0.1c0,0,0.1,0,0.1,0c0.2,0.1,0.2,0.2,0.2,0.3c0,0,0,0,0,0c0,0,0,0,0,0c0,0,0.1,0,0.1,0
		c0,0,0,0,0.1,0c0.2,0,0.2,0.2,0.2,0.2c0,0,0,0,0,0.1c0,0,0.1,0.1,0.2,0.1c0.1,0,0.1,0,0.1,0.1c0,0,0,0,0,0c0,0,0.1-0.1,0.1-0.1
		c0.2-0.1,0.3-0.2,0.5-0.3c0.1,0,0.1,0,0.2,0c0,0,0.1,0,0.1,0c0.1,0,0.2,0,0.3,0c0.1,0,0.2,0,0.3,0c0.2,0,0.5,0,0.7,0
		c0.1,0,0.3,0,0.4,0.1c0.1,0.1,0.1,0.1,0.1,0.2c0,0,0,0.1,0.1,0.1c0,0,0,0,0,0.1c0,0,0.1,0,0.2,0c0,0,0,0,0,0c0.1,0,0.1,0,0.1,0
		c0.1,0,0.3,0.1,0.4,0.2c0,0,0,0.1,0,0.1c0,0,0,0,0,0c0,0,0,0.1,0,0.1l-0.1,0.1c0,0-0.1,0-0.1,0l-0.1,0c0,0,0,0-0.1,0.1
		c0,0.1,0.1,0.2,0.1,0.3c0,0,0,0.1,0,0.1c0,0,0,0.1,0,0.1l-0.1,0.5c0,0,0,0.1-0.1,0.1c0,0,0,0.1,0,0.1c0,0,0,0.1,0,0.1
		c0,0.1-0.1,0.1-0.1,0.2l-0.1,0.1c0,0-0.1,0.1-0.1,0.1c0,0,0,0,0,0C20.1,5.6,19.7,5.8,19.4,5.9L19.4,5.9z M20,6.6c0,0,0-0.1,0-0.1
		l0-0.1c-0.1,0-0.1-0.1-0.2-0.1c0,0-0.1-0.1,0-0.2c0-0.1,0.1-0.1,0.1-0.1c0.3-0.1,0.3-0.1,0.4-0.1c0,0,0.1,0,0.1,0L20.5,6l0.6-0.1
		c0.1,0,0.1,0,0.2,0l0.3,0.2c0,0,0,0,0,0c0,0,0,0,0,0.1c0,0.1,0,0.1,0,0.1c0,0.1,0,0.1-0.1,0.2c-0.8,0.3-0.8,0.3-0.8,0.3h0
		c0,0,0,0,0,0C20,6.7,20,6.7,20,6.6z"/>
	<path fill-opacity="0.4" d="M12.8,6.4L12.8,6.4L12.8,6.4c-0.3,0-0.4,0-0.5,0l0.1,0.1c0,0,0,0,0,0l0.3,0.4c0.1,0.1,0,0.1,0,0.2
		l-0.1,0.1l0,0l0.5-0.3c0,0,0,0,0,0C12.7,6.5,12.7,6.5,12.8,6.4z"/>
	<path fill-opacity="0.4" d="M12.3,6.1l0.2-0.2c0,0,0,0,0,0c0,0,0.1,0,0.1-0.1l-0.5,0.1c0,0,0,0,0,0l0,0.3c0,0,0,0,0,0l0.2,0.1
		c0,0,0,0-0.1,0C12.2,6.2,12.2,6.1,12.3,6.1z"/>
	<path fill-opacity="0.4" d="M12.7,5.7l0.3,0l0.1-0.1c0,0,0,0,0,0l0.2-0.2c-0.1,0-0.1,0-0.2-0.1L12.7,5.7z"/>
	<path fill-opacity="0.4" d="M27.8,13.8l0.7,0.2c0,0,0,0,0.1,0l0.6,0.4l0-0.3c0,0,0-0.1,0.1-0.1l0.1-0.1c0,0,0,0,0,0c0,0,0,0,0.1,0
		c0.1,0,0.3,0,0.5,0c0,0,0.1,0,0.1,0.1l0,0.1c0.1,0,0.1,0,0.2,0c0,0,0,0,0.1,0l0.5,0.2l0.1-0.2c0-0.1,0.1-0.1,0.2-0.1l0.4,0.1l0-0.6
		c0-0.1,0-0.1,0-0.2l-0.1,0.1c0,0,0,0-0.1,0c0,0-0.1,0-0.1,0l0,0c0,0,0,0,0,0c-0.2-0.1-0.2-0.1-0.2-0.1C31,13.4,31,13.3,31,13.2
		c0,0,0,0,0-0.1l0,0c0,0,0,0-0.1,0l-0.3,0.1c0,0-0.1,0-0.1,0l0,0c0,0.2,0,0.4-0.1,0.4c0,0,0,0,0,0h0c-0.6-0.1-0.6-0.1-0.6-0.2
		c-0.1-0.2-0.1-0.2-0.1-0.2c0,0,0,0,0-0.1h-0.1c0,0-0.1,0-0.1,0l0,0c0,0-0.1,0-0.1-0.1l-0.1-0.1c0-0.1-0.1-0.1-0.1-0.2c0,0,0,0,0,0
		c0,0,0,0-0.1,0c0,0-0.1,0-0.1-0.1l-0.2-0.2c0,0-0.1,0-0.1,0c0,0,0,0,0,0c0,0,0,0,0,0l0-0.1c0,0-0.1,0-0.1,0h0l0,0.1
		c0,0,0,0.1,0,0.1l-0.1,0.3c0,0,0,0.1-0.1,0.1V13c0,0.1,0,0.1-0.1,0.2c0,0,0,0.1,0,0.1c0,0,0,0.1,0,0.1c0,0,0,0,0,0
		c-0.1,0.2-0.2,0.2-0.2,0.3c0,0,0,0,0,0l0-0.1l0,0.1c0,0-0.1,0-0.2-0.1c0,0,0-0.1,0-0.1c0-0.1-0.1-0.1-0.1-0.2c0,0.1,0,0.2,0,0.4
		c0,0,0,0.1,0,0.1L27.8,13.8z"/>
	<path fill-opacity="0.4" d="M25,12.7L25,12.7L24.7,13c0,0,0,0,0,0l0,0c0,0,0,0,0,0l-0.3,0c0,0,0,0,0,0h0.3l0.9-0.3c0,0,0,0,0,0
		l1.3-0.1l0.2-0.1c0,0,0.1,0,0.1,0c0,0,0.1,0,0.1,0l0.2,0.1l0.1,0.1c0,0,0,0.1,0.1,0.1c0,0.1,0,0.1,0,0.2c0-0.1,0.1-0.2,0.2-0.2
		c0,0,0,0,0,0c0,0,0,0,0,0c-0.1-0.1-0.3-0.2-0.4-0.3c0,0,0,0,0-0.1c0-0.1,0-0.1,0-0.1c0-0.1,0-0.1,0.1-0.1c0,0,0.1,0,0.1,0l0.3,0.1
		l0-0.1l-0.1,0l-0.5-0.3c0,0,0,0,0,0l-0.3-0.3c0,0,0,0,0,0c0,0.1,0,0.1,0,0.1c0.1,0,0.1,0.1,0.1,0.1c0.1,0.3,0.1,0.3,0.1,0.3
		c0,0.1,0,0.1-0.1,0.2l-0.2,0.1c0,0,0,0,0,0c0,0,0,0-0.1,0c0,0-0.1,0-0.2-0.2c0-0.1,0-0.2-0.1-0.3l0-0.1c0,0,0-0.1,0-0.1
		c0,0,0,0,0-0.1c0,0,0,0,0,0c0,0,0-0.1,0-0.2c0-0.1,0-0.1,0-0.1c0,0,0,0,0,0c0,0,0,0,0,0h0l-0.2,0.1c0,0-0.1,0-0.1,0l-0.4-0.1l0,0
		l0,0.3c0,0,0,0.1-0.1,0.1l-0.2,0.1c0,0,0,0,0,0c0,0,0,0-0.1,0h0L25.1,12l0,0.1l0.1,0.3c0,0.1,0,0.1,0,0.1
		C25.1,12.6,25,12.7,25,12.7z"/>
	<path fill-opacity="0.4" d="M31.4,27.2c0.1-0.1,0.2-0.2,0.2-0.3c0,0,0,0-0.1,0c0,0,0,0,0,0h0c0,0,0,0,0,0c0,0-0.1,0-0.1,0l-0.3,0.5
		c0,0,0,0,0,0L31.4,27.2z"/>
	<path fill-opacity="0.4" d="M33.2,18.3l0.1,0.6c0,0,0,0,0,0c0,0,0.1,0,0.1,0.1l0-0.4c-0.1-0.2-0.1-0.3-0.2-0.5L33.2,18.3
		C33.2,18.3,33.2,18.3,33.2,18.3L33.2,18.3z"/>
	<path fill-opacity="0.4" d="M30,11.3l0.2,0.2l0.1,0c0.1,0,0.2-0.1,0.3-0.1c0.1,0,0.2-0.1,0.3-0.1c0,0,0,0,0.1,0
		c0.1,0,0.1,0,0.3,0.1l0.2,0l-0.2-0.2l-0.5-0.3c0,0,0,0,0,0c0,0,0,0.1-0.1,0.1c0,0,0,0-0.1,0c0,0,0,0-0.1,0c-0.1,0-0.1,0-0.4-0.3
		c0,0,0,0,0,0l0,0.2c0,0,0,0.1,0,0.1c0,0,0,0.1,0,0.1l0,0.1C30,11.2,30,11.2,30,11.3C30,11.3,30,11.3,30,11.3z"/>
	<path fill-opacity="0.4" d="M26.4,8.3L26.4,8.3c-0.1,0-0.1,0-0.1,0L26.4,8.3C26.4,8.4,26.4,8.4,26.4,8.3l0.3-0.1c0,0,0,0,0,0
		c0,0,0.1,0,0.1,0c0.1,0,0.3-0.1,0.4,0l-0.1-0.3c0,0,0-0.1,0-0.1c0,0,0,0,0,0c0,0,0,0,0,0C27,7.6,27,7.6,27,7.5c0,0-0.1,0-0.1,0
		l-0.3-0.1c0,0,0,0,0,0l-0.1,0.3l-0.1,0.1l0,0.3C26.5,8.3,26.5,8.3,26.4,8.3z"/>
	<path fill-opacity="0.4" d="M29.8,12.9L29.8,12.9c0.2,0,0.2,0,0.3,0L30,12.6c0,0,0,0-0.1-0.1c0,0,0,0-0.1-0.1l0,0c0,0,0,0,0,0.1
		c0,0.1,0,0.1,0,0.2C29.9,12.8,29.9,12.8,29.8,12.9L29.8,12.9z"/>
	<path fill-opacity="0.4" d="M11.5,6.5C11.5,6.5,11.4,6.5,11.5,6.5c-0.1,0-0.2,0-0.3,0c-0.1,0-0.1-0.1-0.1-0.2l0,0h-0.2
		c0,0,0,0.1-0.1,0.1c0,0,0,0,0,0c0,0,0,0-0.1,0l-0.4,0.2C10.2,6.6,10,6.7,9.8,6.7L9.4,7.1l0,0.1c0,0,0,0.1-0.1,0.1l0,0
		c0,0,0.1,0,0.1,0.1l0.1,0.4L9.7,8c0,0,0,0,0,0c0,0,0,0,0-0.1c0,0,0-0.1,0.1-0.1l0.7-0.2l0.3-0.5c0,0,0,0,0.1-0.1L11.2,7
		c0.1-0.1,0.1-0.1,0.2-0.2c0.1-0.1,0.2-0.2,0.3-0.3L11.5,6.5L11.5,6.5z"/>
</g>
</svg>
