<?xml version="1.0" encoding="utf-8"?>
<!-- Generator: Adobe Illustrator 18.1.0, SVG Export Plug-In . SVG Version: 6.00 Build 0)  -->
<!DOCTYPE svg PUBLIC "-//W3C//DTD SVG 1.1//EN" "http://www.w3.org/Graphics/SVG/1.1/DTD/svg11.dtd">
<svg version="1.1" id="Layer_1" xmlns="http://www.w3.org/2000/svg" xmlns:xlink="http://www.w3.org/1999/xlink" x="0px" y="0px"
	 viewBox="0 0 36 36" enable-background="new 0 0 36 36" xml:space="preserve">
<path fill-opacity="0.12" stroke="#000000" stroke-width="2" stroke-linejoin="round" stroke-miterlimit="10" d="M31,7H5
	C4.4,7,4,7.4,4,8v2c0,0.6,0.4,1,1,1h26c0.6,0,1-0.4,1-1V8C32,7.4,31.6,7,31,7z"/>
<path fill-opacity="0.12" stroke="#000000" stroke-width="2" stroke-linejoin="round" stroke-miterlimit="10" d="M31,25H5
	c-0.6,0-1,0.4-1,1v2c0,0.6,0.4,1,1,1h26c0.6,0,1-0.4,1-1v-2C32,25.4,31.6,25,31,25z"/>
<path fill-opacity="0.12" stroke="#000000" stroke-width="2" stroke-linejoin="round" stroke-miterlimit="10" d="M31,16H5
	c-0.6,0-1,0.4-1,1v2c0,0.6,0.4,1,1,1h26c0.6,0,1-0.4,1-1v-2C32,16.4,31.6,16,31,16z"/>
</svg>
