<?xml version="1.0" encoding="utf-8"?>
<!-- Generator: Adobe Illustrator 18.1.0, SVG Export Plug-In . SVG Version: 6.00 Build 0)  -->
<!DOCTYPE svg PUBLIC "-//W3C//DTD SVG 1.1//EN" "http://www.w3.org/Graphics/SVG/1.1/DTD/svg11.dtd">
<svg version="1.1" id="Layer_1" xmlns="http://www.w3.org/2000/svg" xmlns:xlink="http://www.w3.org/1999/xlink" x="0px" y="0px"
	 viewBox="0 0 36 36" enable-background="new 0 0 36 36" xml:space="preserve">
<path fill-opacity="0.15" d="M28.8,22h-17L7.4,6l25.7,2.3c1.3,0.1,2.2,1.4,1.7,2.6l-3.5,9.3C31,21.3,30,22,28.8,22z"/>
<circle fill-opacity="0.8" stroke="#000000" stroke-width="2" stroke-linejoin="round" stroke-miterlimit="10" cx="16" cy="30" r="2"/>
<circle fill-opacity="0.8" stroke="#000000" stroke-width="2" stroke-linejoin="round" stroke-miterlimit="10" cx="28" cy="30" r="2"/>
<path fill="none" stroke="#000000" stroke-width="2" stroke-linecap="round" stroke-linejoin="round" stroke-miterlimit="10" d="
	M2.5,4h1.4c1.8,0,3.4,1.2,3.9,3L12.4,24c0.5,1.7,2.1,3,3.9,3H31"/>
<circle fill-opacity="0.8" stroke="#000000" stroke-width="2" stroke-linejoin="round" stroke-miterlimit="10" cx="2.5" cy="5.5" r="1.5"/>
<path fill="none" stroke="#000000" stroke-width="2" stroke-linecap="round" stroke-linejoin="round" stroke-miterlimit="10" d="
	M7.4,6l25.7,2.3c1.3,0.1,2.2,1.4,1.7,2.6l-3.5,9.3C31,21.3,30,22,28.8,22h-17"/>
</svg>
