<?xml version="1.0" encoding="utf-8"?>
<!-- Generator: Adobe Illustrator 18.1.0, SVG Export Plug-In . SVG Version: 6.00 Build 0)  -->
<!DOCTYPE svg PUBLIC "-//W3C//DTD SVG 1.1//EN" "http://www.w3.org/Graphics/SVG/1.1/DTD/svg11.dtd">
<svg version="1.1" id="Layer_1" xmlns="http://www.w3.org/2000/svg" xmlns:xlink="http://www.w3.org/1999/xlink" x="0px" y="0px"
	 viewBox="0 0 36 36" enable-background="new 0 0 36 36" xml:space="preserve">
<path fill-opacity="0.12" stroke="#000000" stroke-width="2" stroke-linejoin="round" stroke-miterlimit="10" d="M22.1,24.6
	c-0.1-1.3-0.1-2.3-0.1-3.5c0.6-0.3,1.7-2.4,1.9-4.1c0.5,0,1.2-0.5,1.5-2.4c0.1-1-0.4-1.6-0.6-1.7c0.8-2.4,2.4-9.6-3-10.4
	c-0.6-1-2-1.5-3.8-1.5c-7.4,0.1-8.3,5.6-6.7,11.9c-0.3,0.2-0.8,0.7-0.6,1.7c0.2,1.9,1,2.3,1.5,2.4c0.2,1.7,1.3,3.8,1.9,4.1
	c0,1.2,0,2.2-0.1,3.5C12.4,28.5,2.5,27.4,2.1,35h31.8C33.5,27.4,23.6,28.5,22.1,24.6z"/>
</svg>
